M48
;DRILL file {KiCad 4.0.5} date 06/07/17 16:04:04
;FORMAT={-:-/ absolute / metric / decimal}
FMAT,2
METRIC,TZ
T1C0.600
T2C0.700
T3C0.800
T4C1.000
T5C6.100
%
G90
G05
M71
T1
X101.6Y-86.36
X101.6Y-88.9
X102.87Y-87.63
X123.825Y-90.805
X123.825Y-93.345
X125.095Y-92.075
T2
X84.455Y-107.315
X85.09Y-92.075
X85.09Y-95.25
X85.09Y-98.425
X89.535Y-107.315
X90.17Y-92.075
X90.17Y-95.25
X90.17Y-98.425
X95.885Y-92.075
X100.965Y-92.075
X105.41Y-103.505
X105.41Y-106.68
X107.95Y-89.535
X110.49Y-86.995
X110.49Y-103.505
X110.49Y-106.68
X113.03Y-89.535
X116.84Y-102.235
X117.475Y-87.63
X117.475Y-92.71
X119.38Y-99.695
X119.38Y-104.775
X120.65Y-86.995
X125.73Y-86.995
X125.73Y-97.79
X125.73Y-102.87
T3
X118.11Y-80.01
X125.61Y-81.41
T4
X80.885Y-80.645
X81.28Y-87.63
X81.28Y-93.345
X81.28Y-95.845
X81.28Y-98.345
X85.09Y-102.87
X95.885Y-80.645
X96.28Y-87.63
X97.155Y-97.155
X99.06Y-80.645
X100.09Y-102.87
X112.155Y-97.155
X114.06Y-80.645
T5
X89.535Y-114.3
X119.505Y-114.3
T0
M30
