<?xml version="1.0" standalone="no"?>
 <!DOCTYPE svg PUBLIC "-//W3C//DTD SVG 1.1//EN" 
 "http://www.w3.org/Graphics/SVG/1.1/DTD/svg11.dtd"> 
<svg xmlns="http://www.w3.org/2000/svg" version="1.1" 
    width="29.7002cm" height="21.0007cm" viewBox="0 0 116930 82680 ">
<title>SVG Picture created as PCB_Final_Project-F.SilkS.svg date 2017/06/12 19:38:21 </title>
  <desc>Picture generated by PCBNEW </desc>
<g style="fill:#000000; fill-opacity:1;stroke:#000000; stroke-opacity:1;
stroke-linecap:round; stroke-linejoin:round; "
 transform="translate(0 0) scale(1 1)">
</g>
<g style="fill:#000000; fill-opacity:0.0; 
stroke:#000000; stroke-width:-0.000393701; stroke-opacity:1; 
stroke-linecap:round; stroke-linejoin:round;">
</g>
<g style="fill:#000000; fill-opacity:0.0; 
stroke:#000000; stroke-width:39.3701; stroke-opacity:1; 
stroke-linecap:round; stroke-linejoin:round;">
</g>
<g style="fill:#000000; fill-opacity:0.0; 
stroke:#000000; stroke-width:59.0551; stroke-opacity:1; 
stroke-linecap:round; stroke-linejoin:round;">
<rect x="69685.9" y="65357.2" width="42519.7" height="12598.4" rx="0" />
</g>
<g style="fill:#000000; fill-opacity:0.0; 
stroke:#000000; stroke-width:39.3701; stroke-opacity:1; 
stroke-linecap:round; stroke-linejoin:round;">
</g>
<g style="fill:#000000; fill-opacity:0.0; 
stroke:#000000; stroke-width:59.0551; stroke-opacity:1; 
stroke-linecap:round; stroke-linejoin:round;">
<rect x="3937.01" y="3937.01" width="109056" height="74806" rx="0" />
</g>
<g style="fill:#000000; fill-opacity:0.0; 
stroke:#000000; stroke-width:39.3701; stroke-opacity:1; 
stroke-linecap:round; stroke-linejoin:round;">
</g>
<g style="fill:#000000; fill-opacity:0.0; 
stroke:#000000; stroke-width:59.0551; stroke-opacity:1; 
stroke-linecap:round; stroke-linejoin:round;">
<rect x="4724.41" y="4724.41" width="107481" height="73231.2" rx="0" />
</g>
<g style="fill:#000000; fill-opacity:0.0; 
stroke:#000000; stroke-width:39.3701; stroke-opacity:1; 
stroke-linecap:round; stroke-linejoin:round;">
</g>
<g style="fill:#000000; fill-opacity:0.0; 
stroke:#000000; stroke-width:59.0551; stroke-opacity:1; 
stroke-linecap:round; stroke-linejoin:round;">
<path d="M23622 4724
L23622 3937
" />
</g>
<g style="fill:#000000; fill-opacity:0.0; 
stroke:#000000; stroke-width:39.3701; stroke-opacity:1; 
stroke-linecap:round; stroke-linejoin:round;">
</g>
<g style="fill:#000000; fill-opacity:0.0; 
stroke:#000000; stroke-width:59.0551; stroke-opacity:1; 
stroke-linecap:round; stroke-linejoin:round;">
<path d="M43307 4724
L43307 3937
" />
</g>
<g style="fill:#000000; fill-opacity:0.0; 
stroke:#000000; stroke-width:39.3701; stroke-opacity:1; 
stroke-linecap:round; stroke-linejoin:round;">
</g>
<g style="fill:#000000; fill-opacity:0.0; 
stroke:#000000; stroke-width:59.0551; stroke-opacity:1; 
stroke-linecap:round; stroke-linejoin:round;">
<path d="M62992 4724
L62992 3937
" />
</g>
<g style="fill:#000000; fill-opacity:0.0; 
stroke:#000000; stroke-width:39.3701; stroke-opacity:1; 
stroke-linecap:round; stroke-linejoin:round;">
</g>
<g style="fill:#000000; fill-opacity:0.0; 
stroke:#000000; stroke-width:59.0551; stroke-opacity:1; 
stroke-linecap:round; stroke-linejoin:round;">
<path d="M82677 4724
L82677 3937
" />
</g>
<g style="fill:#000000; fill-opacity:0.0; 
stroke:#000000; stroke-width:39.3701; stroke-opacity:1; 
stroke-linecap:round; stroke-linejoin:round;">
</g>
<g style="fill:#000000; fill-opacity:0.0; 
stroke:#000000; stroke-width:59.0551; stroke-opacity:1; 
stroke-linecap:round; stroke-linejoin:round;">
<path d="M102362 4724
L102362 3937
" />
</g>
<g style="fill:#000000; fill-opacity:0.0; 
stroke:#000000; stroke-width:39.3701; stroke-opacity:1; 
stroke-linecap:round; stroke-linejoin:round;">
</g>
<g style="fill:#000000; fill-opacity:0.0; 
stroke:#000000; stroke-width:59.0551; stroke-opacity:1; 
stroke-linecap:round; stroke-linejoin:round;">
<path d="M14169 4562
L13877 4562
" />
<path d="M14023 4562
L14023 4050
L13974 4123
L13925 4172
L13877 4196
" />
</g>
<g style="fill:#000000; fill-opacity:0.0; 
stroke:#000000; stroke-width:39.3701; stroke-opacity:1; 
stroke-linecap:round; stroke-linejoin:round;">
</g>
<g style="fill:#000000; fill-opacity:0.0; 
stroke:#000000; stroke-width:59.0551; stroke-opacity:1; 
stroke-linecap:round; stroke-linejoin:round;">
<path d="M33562 4099
L33586 4074
L33635 4050
L33757 4050
L33805 4074
L33830 4099
L33854 4147
L33854 4196
L33830 4269
L33537 4562
L33854 4562
" />
</g>
<g style="fill:#000000; fill-opacity:0.0; 
stroke:#000000; stroke-width:39.3701; stroke-opacity:1; 
stroke-linecap:round; stroke-linejoin:round;">
</g>
<g style="fill:#000000; fill-opacity:0.0; 
stroke:#000000; stroke-width:59.0551; stroke-opacity:1; 
stroke-linecap:round; stroke-linejoin:round;">
<path d="M53222 4050
L53539 4050
L53368 4245
L53442 4245
L53490 4269
L53515 4294
L53539 4342
L53539 4464
L53515 4513
L53490 4537
L53442 4562
L53295 4562
L53247 4537
L53222 4513
" />
</g>
<g style="fill:#000000; fill-opacity:0.0; 
stroke:#000000; stroke-width:39.3701; stroke-opacity:1; 
stroke-linecap:round; stroke-linejoin:round;">
</g>
<g style="fill:#000000; fill-opacity:0.0; 
stroke:#000000; stroke-width:59.0551; stroke-opacity:1; 
stroke-linecap:round; stroke-linejoin:round;">
<path d="M73175 4221
L73175 4562
" />
<path d="M73053 4026
L72932 4391
L73248 4391
" />
</g>
<g style="fill:#000000; fill-opacity:0.0; 
stroke:#000000; stroke-width:39.3701; stroke-opacity:1; 
stroke-linecap:round; stroke-linejoin:round;">
</g>
<g style="fill:#000000; fill-opacity:0.0; 
stroke:#000000; stroke-width:59.0551; stroke-opacity:1; 
stroke-linecap:round; stroke-linejoin:round;">
<path d="M92885 4050
L92641 4050
L92617 4294
L92641 4269
L92690 4245
L92812 4245
L92860 4269
L92885 4294
L92909 4342
L92909 4464
L92885 4513
L92860 4537
L92812 4562
L92690 4562
L92641 4537
L92617 4513
" />
</g>
<g style="fill:#000000; fill-opacity:0.0; 
stroke:#000000; stroke-width:39.3701; stroke-opacity:1; 
stroke-linecap:round; stroke-linejoin:round;">
</g>
<g style="fill:#000000; fill-opacity:0.0; 
stroke:#000000; stroke-width:59.0551; stroke-opacity:1; 
stroke-linecap:round; stroke-linejoin:round;">
<path d="M112545 4050
L112448 4050
L112399 4074
L112375 4099
L112326 4172
L112302 4269
L112302 4464
L112326 4513
L112350 4537
L112399 4562
L112497 4562
L112545 4537
L112570 4513
L112594 4464
L112594 4342
L112570 4294
L112545 4269
L112497 4245
L112399 4245
L112350 4269
L112326 4294
L112302 4342
" />
</g>
<g style="fill:#000000; fill-opacity:0.0; 
stroke:#000000; stroke-width:39.3701; stroke-opacity:1; 
stroke-linecap:round; stroke-linejoin:round;">
</g>
<g style="fill:#000000; fill-opacity:0.0; 
stroke:#000000; stroke-width:59.0551; stroke-opacity:1; 
stroke-linecap:round; stroke-linejoin:round;">
<path d="M23622 77955
L23622 78742
" />
</g>
<g style="fill:#000000; fill-opacity:0.0; 
stroke:#000000; stroke-width:39.3701; stroke-opacity:1; 
stroke-linecap:round; stroke-linejoin:round;">
</g>
<g style="fill:#000000; fill-opacity:0.0; 
stroke:#000000; stroke-width:59.0551; stroke-opacity:1; 
stroke-linecap:round; stroke-linejoin:round;">
<path d="M43307 77955
L43307 78742
" />
</g>
<g style="fill:#000000; fill-opacity:0.0; 
stroke:#000000; stroke-width:39.3701; stroke-opacity:1; 
stroke-linecap:round; stroke-linejoin:round;">
</g>
<g style="fill:#000000; fill-opacity:0.0; 
stroke:#000000; stroke-width:59.0551; stroke-opacity:1; 
stroke-linecap:round; stroke-linejoin:round;">
<path d="M62992 77955
L62992 78742
" />
</g>
<g style="fill:#000000; fill-opacity:0.0; 
stroke:#000000; stroke-width:39.3701; stroke-opacity:1; 
stroke-linecap:round; stroke-linejoin:round;">
</g>
<g style="fill:#000000; fill-opacity:0.0; 
stroke:#000000; stroke-width:59.0551; stroke-opacity:1; 
stroke-linecap:round; stroke-linejoin:round;">
<path d="M82677 77955
L82677 78742
" />
</g>
<g style="fill:#000000; fill-opacity:0.0; 
stroke:#000000; stroke-width:39.3701; stroke-opacity:1; 
stroke-linecap:round; stroke-linejoin:round;">
</g>
<g style="fill:#000000; fill-opacity:0.0; 
stroke:#000000; stroke-width:59.0551; stroke-opacity:1; 
stroke-linecap:round; stroke-linejoin:round;">
<path d="M102362 77955
L102362 78742
" />
</g>
<g style="fill:#000000; fill-opacity:0.0; 
stroke:#000000; stroke-width:39.3701; stroke-opacity:1; 
stroke-linecap:round; stroke-linejoin:round;">
</g>
<g style="fill:#000000; fill-opacity:0.0; 
stroke:#000000; stroke-width:59.0551; stroke-opacity:1; 
stroke-linecap:round; stroke-linejoin:round;">
<path d="M14169 78580
L13877 78580
" />
<path d="M14023 78580
L14023 78069
L13974 78142
L13925 78190
L13877 78215
" />
</g>
<g style="fill:#000000; fill-opacity:0.0; 
stroke:#000000; stroke-width:39.3701; stroke-opacity:1; 
stroke-linecap:round; stroke-linejoin:round;">
</g>
<g style="fill:#000000; fill-opacity:0.0; 
stroke:#000000; stroke-width:59.0551; stroke-opacity:1; 
stroke-linecap:round; stroke-linejoin:round;">
<path d="M33562 78117
L33586 78093
L33635 78069
L33757 78069
L33805 78093
L33830 78117
L33854 78166
L33854 78215
L33830 78288
L33537 78580
L33854 78580
" />
</g>
<g style="fill:#000000; fill-opacity:0.0; 
stroke:#000000; stroke-width:39.3701; stroke-opacity:1; 
stroke-linecap:round; stroke-linejoin:round;">
</g>
<g style="fill:#000000; fill-opacity:0.0; 
stroke:#000000; stroke-width:59.0551; stroke-opacity:1; 
stroke-linecap:round; stroke-linejoin:round;">
<path d="M53222 78069
L53539 78069
L53368 78263
L53442 78263
L53490 78288
L53515 78312
L53539 78361
L53539 78483
L53515 78532
L53490 78556
L53442 78580
L53295 78580
L53247 78556
L53222 78532
" />
</g>
<g style="fill:#000000; fill-opacity:0.0; 
stroke:#000000; stroke-width:39.3701; stroke-opacity:1; 
stroke-linecap:round; stroke-linejoin:round;">
</g>
<g style="fill:#000000; fill-opacity:0.0; 
stroke:#000000; stroke-width:59.0551; stroke-opacity:1; 
stroke-linecap:round; stroke-linejoin:round;">
<path d="M73175 78239
L73175 78580
" />
<path d="M73053 78044
L72932 78410
L73248 78410
" />
</g>
<g style="fill:#000000; fill-opacity:0.0; 
stroke:#000000; stroke-width:39.3701; stroke-opacity:1; 
stroke-linecap:round; stroke-linejoin:round;">
</g>
<g style="fill:#000000; fill-opacity:0.0; 
stroke:#000000; stroke-width:59.0551; stroke-opacity:1; 
stroke-linecap:round; stroke-linejoin:round;">
<path d="M92885 78069
L92641 78069
L92617 78312
L92641 78288
L92690 78263
L92812 78263
L92860 78288
L92885 78312
L92909 78361
L92909 78483
L92885 78532
L92860 78556
L92812 78580
L92690 78580
L92641 78556
L92617 78532
" />
</g>
<g style="fill:#000000; fill-opacity:0.0; 
stroke:#000000; stroke-width:39.3701; stroke-opacity:1; 
stroke-linecap:round; stroke-linejoin:round;">
</g>
<g style="fill:#000000; fill-opacity:0.0; 
stroke:#000000; stroke-width:59.0551; stroke-opacity:1; 
stroke-linecap:round; stroke-linejoin:round;">
<path d="M112545 78069
L112448 78069
L112399 78093
L112375 78117
L112326 78190
L112302 78288
L112302 78483
L112326 78532
L112350 78556
L112399 78580
L112497 78580
L112545 78556
L112570 78532
L112594 78483
L112594 78361
L112570 78312
L112545 78288
L112497 78263
L112399 78263
L112350 78288
L112326 78312
L112302 78361
" />
</g>
<g style="fill:#000000; fill-opacity:0.0; 
stroke:#000000; stroke-width:39.3701; stroke-opacity:1; 
stroke-linecap:round; stroke-linejoin:round;">
</g>
<g style="fill:#000000; fill-opacity:0.0; 
stroke:#000000; stroke-width:59.0551; stroke-opacity:1; 
stroke-linecap:round; stroke-linejoin:round;">
<path d="M3937 23622
L4724 23622
" />
</g>
<g style="fill:#000000; fill-opacity:0.0; 
stroke:#000000; stroke-width:39.3701; stroke-opacity:1; 
stroke-linecap:round; stroke-linejoin:round;">
</g>
<g style="fill:#000000; fill-opacity:0.0; 
stroke:#000000; stroke-width:59.0551; stroke-opacity:1; 
stroke-linecap:round; stroke-linejoin:round;">
<path d="M3937 43307
L4724 43307
" />
</g>
<g style="fill:#000000; fill-opacity:0.0; 
stroke:#000000; stroke-width:39.3701; stroke-opacity:1; 
stroke-linecap:round; stroke-linejoin:round;">
</g>
<g style="fill:#000000; fill-opacity:0.0; 
stroke:#000000; stroke-width:59.0551; stroke-opacity:1; 
stroke-linecap:round; stroke-linejoin:round;">
<path d="M3937 62992
L4724 62992
" />
</g>
<g style="fill:#000000; fill-opacity:0.0; 
stroke:#000000; stroke-width:39.3701; stroke-opacity:1; 
stroke-linecap:round; stroke-linejoin:round;">
</g>
<g style="fill:#000000; fill-opacity:0.0; 
stroke:#000000; stroke-width:59.0551; stroke-opacity:1; 
stroke-linecap:round; stroke-linejoin:round;">
<path d="M4208 13864
L4452 13864
" />
<path d="M4160 14011
L4330 13499
L4501 14011
" />
</g>
<g style="fill:#000000; fill-opacity:0.0; 
stroke:#000000; stroke-width:39.3701; stroke-opacity:1; 
stroke-linecap:round; stroke-linejoin:round;">
</g>
<g style="fill:#000000; fill-opacity:0.0; 
stroke:#000000; stroke-width:59.0551; stroke-opacity:1; 
stroke-linecap:round; stroke-linejoin:round;">
<path d="M4367 33428
L4440 33452
L4464 33476
L4489 33525
L4489 33598
L4464 33647
L4440 33671
L4391 33696
L4196 33696
L4196 33184
L4367 33184
L4416 33208
L4440 33233
L4464 33281
L4464 33330
L4440 33379
L4416 33403
L4367 33428
L4196 33428
" />
</g>
<g style="fill:#000000; fill-opacity:0.0; 
stroke:#000000; stroke-width:39.3701; stroke-opacity:1; 
stroke-linecap:round; stroke-linejoin:round;">
</g>
<g style="fill:#000000; fill-opacity:0.0; 
stroke:#000000; stroke-width:59.0551; stroke-opacity:1; 
stroke-linecap:round; stroke-linejoin:round;">
<path d="M4489 53332
L4464 53356
L4391 53381
L4342 53381
L4269 53356
L4221 53308
L4196 53259
L4172 53161
L4172 53088
L4196 52991
L4221 52942
L4269 52893
L4342 52869
L4391 52869
L4464 52893
L4489 52918
" />
</g>
<g style="fill:#000000; fill-opacity:0.0; 
stroke:#000000; stroke-width:39.3701; stroke-opacity:1; 
stroke-linecap:round; stroke-linejoin:round;">
</g>
<g style="fill:#000000; fill-opacity:0.0; 
stroke:#000000; stroke-width:59.0551; stroke-opacity:1; 
stroke-linecap:round; stroke-linejoin:round;">
<path d="M4196 73066
L4196 72554
L4318 72554
L4391 72578
L4440 72627
L4464 72676
L4489 72773
L4489 72846
L4464 72944
L4440 72993
L4391 73041
L4318 73066
L4196 73066
" />
</g>
<g style="fill:#000000; fill-opacity:0.0; 
stroke:#000000; stroke-width:39.3701; stroke-opacity:1; 
stroke-linecap:round; stroke-linejoin:round;">
</g>
<g style="fill:#000000; fill-opacity:0.0; 
stroke:#000000; stroke-width:59.0551; stroke-opacity:1; 
stroke-linecap:round; stroke-linejoin:round;">
<path d="M112992 23622
L112205 23622
" />
</g>
<g style="fill:#000000; fill-opacity:0.0; 
stroke:#000000; stroke-width:39.3701; stroke-opacity:1; 
stroke-linecap:round; stroke-linejoin:round;">
</g>
<g style="fill:#000000; fill-opacity:0.0; 
stroke:#000000; stroke-width:59.0551; stroke-opacity:1; 
stroke-linecap:round; stroke-linejoin:round;">
<path d="M112992 43307
L112205 43307
" />
</g>
<g style="fill:#000000; fill-opacity:0.0; 
stroke:#000000; stroke-width:39.3701; stroke-opacity:1; 
stroke-linecap:round; stroke-linejoin:round;">
</g>
<g style="fill:#000000; fill-opacity:0.0; 
stroke:#000000; stroke-width:59.0551; stroke-opacity:1; 
stroke-linecap:round; stroke-linejoin:round;">
<path d="M112992 62992
L112205 62992
" />
</g>
<g style="fill:#000000; fill-opacity:0.0; 
stroke:#000000; stroke-width:39.3701; stroke-opacity:1; 
stroke-linecap:round; stroke-linejoin:round;">
</g>
<g style="fill:#000000; fill-opacity:0.0; 
stroke:#000000; stroke-width:59.0551; stroke-opacity:1; 
stroke-linecap:round; stroke-linejoin:round;">
<path d="M112477 13864
L112721 13864
" />
<path d="M112428 14011
L112599 13499
L112769 14011
" />
</g>
<g style="fill:#000000; fill-opacity:0.0; 
stroke:#000000; stroke-width:39.3701; stroke-opacity:1; 
stroke-linecap:round; stroke-linejoin:round;">
</g>
<g style="fill:#000000; fill-opacity:0.0; 
stroke:#000000; stroke-width:59.0551; stroke-opacity:1; 
stroke-linecap:round; stroke-linejoin:round;">
<path d="M112635 33428
L112708 33452
L112733 33476
L112757 33525
L112757 33598
L112733 33647
L112708 33671
L112660 33696
L112465 33696
L112465 33184
L112635 33184
L112684 33208
L112708 33233
L112733 33281
L112733 33330
L112708 33379
L112684 33403
L112635 33428
L112465 33428
" />
</g>
<g style="fill:#000000; fill-opacity:0.0; 
stroke:#000000; stroke-width:39.3701; stroke-opacity:1; 
stroke-linecap:round; stroke-linejoin:round;">
</g>
<g style="fill:#000000; fill-opacity:0.0; 
stroke:#000000; stroke-width:59.0551; stroke-opacity:1; 
stroke-linecap:round; stroke-linejoin:round;">
<path d="M112757 53332
L112733 53356
L112660 53381
L112611 53381
L112538 53356
L112489 53308
L112465 53259
L112440 53161
L112440 53088
L112465 52991
L112489 52942
L112538 52893
L112611 52869
L112660 52869
L112733 52893
L112757 52918
" />
</g>
<g style="fill:#000000; fill-opacity:0.0; 
stroke:#000000; stroke-width:39.3701; stroke-opacity:1; 
stroke-linecap:round; stroke-linejoin:round;">
</g>
<g style="fill:#000000; fill-opacity:0.0; 
stroke:#000000; stroke-width:59.0551; stroke-opacity:1; 
stroke-linecap:round; stroke-linejoin:round;">
<path d="M112465 73066
L112465 72554
L112587 72554
L112660 72578
L112708 72627
L112733 72676
L112757 72773
L112757 72846
L112733 72944
L112708 72993
L112660 73041
L112587 73066
L112465 73066
" />
</g>
<g style="fill:#000000; fill-opacity:0.0; 
stroke:#000000; stroke-width:39.3701; stroke-opacity:1; 
stroke-linecap:round; stroke-linejoin:round;">
</g>
<g style="fill:#000000; fill-opacity:0.0; 
stroke:#000000; stroke-width:59.0551; stroke-opacity:1; 
stroke-linecap:round; stroke-linejoin:round;">
<path d="M78881 76293
L78881 75703
L79022 75703
L79106 75731
L79162 75787
L79190 75843
L79219 75956
L79219 76040
L79190 76153
L79162 76209
L79106 76265
L79022 76293
L78881 76293
" />
<path d="M79725 76293
L79725 75984
L79697 75928
L79640 75899
L79528 75899
L79472 75928
" />
<path d="M79725 76265
L79669 76293
L79528 76293
L79472 76265
L79444 76209
L79444 76153
L79472 76096
L79528 76068
L79669 76068
L79725 76040
" />
<path d="M79922 75899
L80147 75899
" />
<path d="M80006 75703
L80006 76209
L80034 76265
L80090 76293
L80147 76293
" />
<path d="M80568 76265
L80512 76293
L80400 76293
L80343 76265
L80315 76209
L80315 75984
L80343 75928
L80400 75899
L80512 75899
L80568 75928
L80597 75984
L80597 76040
L80315 76096
" />
<path d="M80850 76237
L80878 76265
L80850 76293
L80822 76265
L80850 76237
L80850 76293
" />
<path d="M80850 75928
L80878 75956
L80850 75984
L80822 75956
L80850 75928
L80850 75984
" />
<path d="M81553 75759
L81581 75731
L81637 75703
L81778 75703
L81834 75731
L81862 75759
L81890 75815
L81890 75871
L81862 75956
L81525 76293
L81890 76293
" />
<path d="M82256 75703
L82312 75703
L82368 75731
L82396 75759
L82424 75815
L82453 75928
L82453 76068
L82424 76181
L82396 76237
L82368 76265
L82312 76293
L82256 76293
L82199 76265
L82171 76237
L82143 76181
L82115 76068
L82115 75928
L82143 75815
L82171 75759
L82199 75731
L82256 75703
" />
<path d="M83015 76293
L82678 76293
" />
<path d="M82846 76293
L82846 75703
L82790 75787
L82734 75843
L82678 75871
" />
<path d="M83212 75703
L83606 75703
L83352 76293
" />
<path d="M83831 76068
L84280 76068
" />
<path d="M84674 75703
L84730 75703
L84787 75731
L84815 75759
L84843 75815
L84871 75928
L84871 76068
L84843 76181
L84815 76237
L84787 76265
L84730 76293
L84674 76293
L84618 76265
L84590 76237
L84562 76181
L84534 76068
L84534 75928
L84562 75815
L84590 75759
L84618 75731
L84674 75703
" />
<path d="M85377 75703
L85265 75703
L85208 75731
L85180 75759
L85124 75843
L85096 75956
L85096 76181
L85124 76237
L85152 76265
L85208 76293
L85321 76293
L85377 76265
L85405 76237
L85433 76181
L85433 76040
L85405 75984
L85377 75956
L85321 75928
L85208 75928
L85152 75956
L85124 75984
L85096 76040
" />
<path d="M85687 76068
L86136 76068
" />
<path d="M86530 75703
L86586 75703
L86643 75731
L86671 75759
L86699 75815
L86727 75928
L86727 76068
L86699 76181
L86671 76237
L86643 76265
L86586 76293
L86530 76293
L86474 76265
L86446 76237
L86418 76181
L86390 76068
L86390 75928
L86418 75815
L86446 75759
L86474 75731
L86530 75703
" />
<path d="M86924 75703
L87289 75703
L87093 75928
L87177 75928
L87233 75956
L87261 75984
L87289 76040
L87289 76181
L87261 76237
L87233 76265
L87177 76293
L87008 76293
L86952 76265
L86924 76237
" />
</g>
<g style="fill:#000000; fill-opacity:0.0; 
stroke:#000000; stroke-width:39.3701; stroke-opacity:1; 
stroke-linecap:round; stroke-linejoin:round;">
</g>
<g style="fill:#000000; fill-opacity:0.0; 
stroke:#000000; stroke-width:59.0551; stroke-opacity:1; 
stroke-linecap:round; stroke-linejoin:round;">
<path d="M69685 76577
L112205 76577
" />
</g>
<g style="fill:#000000; fill-opacity:0.0; 
stroke:#000000; stroke-width:39.3701; stroke-opacity:1; 
stroke-linecap:round; stroke-linejoin:round;">
</g>
<g style="fill:#000000; fill-opacity:0.0; 
stroke:#000000; stroke-width:59.0551; stroke-opacity:1; 
stroke-linecap:round; stroke-linejoin:round;">
<path d="M70220 77395
L70220 76805
" />
<path d="M70557 77395
L70304 77058
" />
<path d="M70557 76805
L70220 77142
" />
<path d="M70810 77395
L70810 77002
" />
<path d="M70810 76805
L70782 76833
L70810 76861
L70838 76833
L70810 76805
L70810 76861
" />
<path d="M71429 77339
L71401 77367
L71316 77395
L71260 77395
L71176 77367
L71120 77311
L71091 77255
L71063 77142
L71063 77058
L71091 76946
L71120 76889
L71176 76833
L71260 76805
L71316 76805
L71401 76833
L71429 76861
" />
<path d="M71935 77395
L71935 77086
L71907 77030
L71851 77002
L71738 77002
L71682 77030
" />
<path d="M71935 77367
L71879 77395
L71738 77395
L71682 77367
L71654 77311
L71654 77255
L71682 77199
L71738 77171
L71879 77171
L71935 77142
" />
<path d="M72469 77395
L72469 76805
" />
<path d="M72469 77367
L72413 77395
L72301 77395
L72244 77367
L72216 77339
L72188 77283
L72188 77114
L72216 77058
L72244 77030
L72301 77002
L72413 77002
L72469 77030
" />
<path d="M73201 77086
L73397 77086
" />
<path d="M73482 77395
L73201 77395
L73201 76805
L73482 76805
" />
<path d="M73735 77339
L73763 77367
L73735 77395
L73707 77367
L73735 77339
L73735 77395
" />
<path d="M74016 77395
L74016 76805
L74157 76805
L74241 76833
L74297 76889
L74325 76946
L74354 77058
L74354 77142
L74325 77255
L74297 77311
L74241 77367
L74157 77395
L74016 77395
" />
<path d="M74607 77339
L74635 77367
L74607 77395
L74579 77367
L74607 77339
L74607 77395
" />
<path d="M74860 77227
L75141 77227
" />
<path d="M74804 77395
L75000 76805
L75197 77395
" />
<path d="M75394 77339
L75422 77367
L75394 77395
L75366 77367
L75394 77339
L75394 77395
" />
<path d="M76575 77395
L76575 76805
" />
<path d="M76631 77171
L76800 77395
" />
<path d="M76800 77002
L76575 77227
" />
<path d="M77053 77395
L77053 77002
" />
<path d="M77053 76805
L77025 76833
L77053 76861
L77081 76833
L77053 76805
L77053 76861
" />
<path d="M77588 77367
L77531 77395
L77419 77395
L77363 77367
L77334 77339
L77306 77283
L77306 77114
L77334 77058
L77363 77030
L77419 77002
L77531 77002
L77588 77030
" />
<path d="M78094 77395
L78094 77086
L78066 77030
L78009 77002
L77897 77002
L77841 77030
" />
<path d="M78094 77367
L78037 77395
L77897 77395
L77841 77367
L77813 77311
L77813 77255
L77841 77199
L77897 77171
L78037 77171
L78094 77142
" />
<path d="M78628 77395
L78628 76805
" />
<path d="M78628 77367
L78572 77395
L78459 77395
L78403 77367
L78375 77339
L78347 77283
L78347 77114
L78375 77058
L78403 77030
L78459 77002
L78572 77002
L78628 77030
" />
<path d="M79612 77002
L79612 77395
" />
<path d="M79472 76777
L79331 77199
L79697 77199
" />
<path d="M79922 77339
L79950 77367
L79922 77395
L79894 77367
L79922 77339
L79922 77395
" />
<path d="M80315 76805
L80372 76805
L80428 76833
L80456 76861
L80484 76917
L80512 77030
L80512 77171
L80484 77283
L80456 77339
L80428 77367
L80372 77395
L80315 77395
L80259 77367
L80231 77339
L80203 77283
L80175 77171
L80175 77030
L80203 76917
L80231 76861
L80259 76833
L80315 76805
" />
<path d="M80765 77339
L80793 77367
L80765 77395
L80737 77367
L80765 77339
L80765 77395
" />
<path d="M81328 76805
L81046 76805
L81018 77086
L81046 77058
L81103 77030
L81243 77030
L81300 77058
L81328 77086
L81356 77142
L81356 77283
L81328 77339
L81300 77367
L81243 77395
L81103 77395
L81046 77367
L81018 77339
" />
</g>
<g style="fill:#000000; fill-opacity:0.0; 
stroke:#000000; stroke-width:39.3701; stroke-opacity:1; 
stroke-linecap:round; stroke-linejoin:round;">
</g>
<g style="fill:#000000; fill-opacity:0.0; 
stroke:#000000; stroke-width:59.0551; stroke-opacity:1; 
stroke-linecap:round; stroke-linejoin:round;">
<path d="M69685 75396
L112205 75396
" />
</g>
<g style="fill:#000000; fill-opacity:0.0; 
stroke:#000000; stroke-width:39.3701; stroke-opacity:1; 
stroke-linecap:round; stroke-linejoin:round;">
</g>
<g style="fill:#000000; fill-opacity:0.0; 
stroke:#000000; stroke-width:118.11; stroke-opacity:1; 
stroke-linecap:round; stroke-linejoin:round;">
<path d="M104022 76293
L103825 76012
" />
<path d="M103684 76293
L103684 75703
L103909 75703
L103965 75731
L103994 75759
L104022 75815
L104022 75899
L103994 75956
L103965 75984
L103909 76012
L103684 76012
" />
<path d="M104500 76265
L104444 76293
L104331 76293
L104275 76265
L104247 76209
L104247 75984
L104275 75928
L104331 75899
L104444 75899
L104500 75928
L104528 75984
L104528 76040
L104247 76096
" />
<path d="M104725 75899
L104865 76293
L105006 75899
" />
<path d="M105231 76237
L105259 76265
L105231 76293
L105203 76265
L105231 76237
L105231 76293
" />
<path d="M105231 75928
L105259 75956
L105231 75984
L105203 75956
L105231 75928
L105231 75984
" />
</g>
<g style="fill:#000000; fill-opacity:0.0; 
stroke:#000000; stroke-width:39.3701; stroke-opacity:1; 
stroke-linecap:round; stroke-linejoin:round;">
</g>
<g style="fill:#000000; fill-opacity:0.0; 
stroke:#000000; stroke-width:59.0551; stroke-opacity:1; 
stroke-linecap:round; stroke-linejoin:round;">
<path d="M70192 76265
L70276 76293
L70417 76293
L70473 76265
L70501 76237
L70529 76181
L70529 76124
L70501 76068
L70473 76040
L70417 76012
L70304 75984
L70248 75956
L70220 75928
L70192 75871
L70192 75815
L70220 75759
L70248 75731
L70304 75703
L70445 75703
L70529 75731
" />
<path d="M70782 76293
L70782 75899
" />
<path d="M70782 75703
L70754 75731
L70782 75759
L70810 75731
L70782 75703
L70782 75759
" />
<path d="M71007 75899
L71316 75899
L71007 76293
L71316 76293
" />
<path d="M71766 76265
L71710 76293
L71598 76293
L71541 76265
L71513 76209
L71513 75984
L71541 75928
L71598 75899
L71710 75899
L71766 75928
L71795 75984
L71795 76040
L71513 76096
" />
<path d="M72048 76237
L72076 76265
L72048 76293
L72019 76265
L72048 76237
L72048 76293
" />
<path d="M72048 75928
L72076 75956
L72048 75984
L72019 75956
L72048 75928
L72048 75984
" />
<path d="M72751 76124
L73032 76124
" />
<path d="M72694 76293
L72891 75703
L73088 76293
" />
<path d="M73538 75899
L73538 76293
" />
<path d="M73397 75674
L73257 76096
L73622 76096
" />
</g>
<g style="fill:#000000; fill-opacity:0.0; 
stroke:#000000; stroke-width:39.3701; stroke-opacity:1; 
stroke-linecap:round; stroke-linejoin:round;">
</g>
<g style="fill:#000000; fill-opacity:0.0; 
stroke:#000000; stroke-width:59.0551; stroke-opacity:1; 
stroke-linecap:round; stroke-linejoin:round;">
<path d="M103684 77395
L103684 76805
" />
<path d="M104219 77395
L104219 76805
" />
<path d="M104219 77367
L104162 77395
L104050 77395
L103994 77367
L103965 77339
L103937 77283
L103937 77114
L103965 77058
L103994 77030
L104050 77002
L104162 77002
L104219 77030
" />
<path d="M104500 77339
L104528 77367
L104500 77395
L104472 77367
L104500 77339
L104500 77395
" />
<path d="M104500 77030
L104528 77058
L104500 77086
L104472 77058
L104500 77030
L104500 77086
" />
<path d="M105540 77395
L105203 77395
" />
<path d="M105372 77395
L105372 76805
L105315 76889
L105259 76946
L105203 76974
" />
<path d="M106215 76777
L105709 77536
" />
<path d="M106721 77395
L106384 77395
" />
<path d="M106553 77395
L106553 76805
L106496 76889
L106440 76946
L106384 76974
" />
</g>
<g style="fill:#000000; fill-opacity:0.0; 
stroke:#000000; stroke-width:39.3701; stroke-opacity:1; 
stroke-linecap:round; stroke-linejoin:round;">
</g>
<g style="fill:#000000; fill-opacity:0.0; 
stroke:#000000; stroke-width:59.0551; stroke-opacity:1; 
stroke-linecap:round; stroke-linejoin:round;">
<path d="M69685 73821
L112205 73821
" />
</g>
<g style="fill:#000000; fill-opacity:0.0; 
stroke:#000000; stroke-width:39.3701; stroke-opacity:1; 
stroke-linecap:round; stroke-linejoin:round;">
</g>
<g style="fill:#000000; fill-opacity:0.0; 
stroke:#000000; stroke-width:157.48; stroke-opacity:1; 
stroke-linecap:round; stroke-linejoin:round;">
<path d="M70257 74099
L70707 74099
" />
<path d="M70384 74886
L70482 74099
" />
<path d="M70871 74886
L70937 74361
" />
<path d="M70970 74099
L70927 74136
L70960 74174
L71002 74136
L70970 74099
L70960 74174
" />
<path d="M71199 74361
L71499 74361
" />
<path d="M71345 74099
L71260 74774
L71288 74849
L71359 74886
L71434 74886
" />
<path d="M71809 74886
L71738 74849
L71710 74774
L71795 74099
" />
<path d="M72413 74849
L72334 74886
L72184 74886
L72113 74849
L72085 74774
L72123 74474
L72169 74399
L72249 74361
L72399 74361
L72469 74399
L72498 74474
L72488 74549
L72104 74624
" />
<path d="M72793 74811
L72826 74849
L72783 74886
L72751 74849
L72793 74811
L72783 74886
" />
<path d="M72844 74399
L72877 74436
L72835 74474
L72802 74436
L72844 74399
L72835 74474
" />
<path d="M73758 74886
L73857 74099
L74157 74099
L74227 74136
L74260 74174
L74288 74249
L74274 74361
L74227 74436
L74185 74474
L74105 74511
L73805 74511
" />
<path d="M75005 74811
L74963 74849
L74846 74886
L74771 74886
L74663 74849
L74597 74774
L74569 74699
L74550 74549
L74564 74436
L74621 74286
L74668 74211
L74752 74136
L74869 74099
L74944 74099
L75052 74136
L75085 74174
" />
<path d="M75647 74474
L75755 74511
L75788 74549
L75816 74624
L75802 74736
L75755 74811
L75713 74849
L75633 74886
L75333 74886
L75432 74099
L75694 74099
L75764 74136
L75797 74174
L75825 74249
L75816 74324
L75769 74399
L75727 74436
L75647 74474
L75385 74474
" />
<path d="M75924 74961
L76524 74961
" />
<path d="M77034 74474
L76772 74474
" />
<path d="M76720 74886
L76819 74099
L77194 74099
" />
<path d="M77395 74886
L77461 74361
" />
<path d="M77494 74099
L77452 74136
L77484 74174
L77527 74136
L77494 74099
L77484 74174
" />
<path d="M77836 74361
L77770 74886
" />
<path d="M77827 74436
L77869 74399
L77948 74361
L78061 74361
L78131 74399
L78159 74474
L78108 74886
" />
<path d="M78820 74886
L78872 74474
L78844 74399
L78773 74361
L78623 74361
L78544 74399
" />
<path d="M78825 74849
L78745 74886
L78558 74886
L78487 74849
L78459 74774
L78469 74699
L78516 74624
L78595 74586
L78783 74586
L78862 74549
" />
<path d="M79308 74886
L79237 74849
L79209 74774
L79294 74099
" />
<path d="M79411 74961
L80011 74961
" />
<path d="M80208 74886
L80306 74099
L80606 74099
L80676 74136
L80709 74174
L80737 74249
L80723 74361
L80676 74436
L80634 74474
L80554 74511
L80254 74511
" />
<path d="M80995 74886
L81061 74361
" />
<path d="M81042 74511
L81089 74436
L81131 74399
L81211 74361
L81286 74361
" />
<path d="M81595 74886
L81525 74849
L81492 74811
L81464 74736
L81492 74511
L81539 74436
L81581 74399
L81660 74361
L81773 74361
L81843 74399
L81876 74436
L81904 74511
L81876 74736
L81829 74811
L81787 74849
L81707 74886
L81595 74886
" />
<path d="M82260 74361
L82176 75036
L82129 75111
L82049 75149
L82012 75149
" />
<path d="M82293 74099
L82251 74136
L82284 74174
L82326 74136
L82293 74099
L82284 74174
" />
<path d="M82874 74849
L82795 74886
L82645 74886
L82574 74849
L82546 74774
L82584 74474
L82631 74399
L82710 74361
L82860 74361
L82931 74399
L82959 74474
L82949 74549
L82565 74624
" />
<path d="M83587 74849
L83507 74886
L83357 74886
L83287 74849
L83254 74811
L83226 74736
L83254 74511
L83301 74436
L83343 74399
L83423 74361
L83573 74361
L83643 74399
" />
<path d="M83873 74361
L84173 74361
" />
<path d="M84018 74099
L83934 74774
L83962 74849
L84032 74886
L84107 74886
" />
</g>
<g style="fill:#000000; fill-opacity:0.0; 
stroke:#000000; stroke-width:39.3701; stroke-opacity:1; 
stroke-linecap:round; stroke-linejoin:round;">
</g>
<g style="fill:#000000; fill-opacity:0.0; 
stroke:#000000; stroke-width:59.0551; stroke-opacity:1; 
stroke-linecap:round; stroke-linejoin:round;">
<path d="M70417 73070
L70220 73070
" />
<path d="M70220 73380
L70220 72789
L70501 72789
" />
<path d="M70726 73380
L70726 72986
" />
<path d="M70726 72789
L70698 72817
L70726 72845
L70754 72817
L70726 72789
L70726 72845
" />
<path d="M71091 73380
L71035 73352
L71007 73295
L71007 72789
" />
<path d="M71541 73352
L71485 73380
L71373 73380
L71316 73352
L71288 73295
L71288 73070
L71316 73014
L71373 72986
L71485 72986
L71541 73014
L71570 73070
L71570 73127
L71288 73183
" />
<path d="M71823 73323
L71851 73352
L71823 73380
L71795 73352
L71823 73323
L71823 73380
" />
<path d="M71823 73014
L71851 73042
L71823 73070
L71795 73042
L71823 73014
L71823 73070
" />
<path d="M72554 73380
L72554 72789
L72779 72789
L72835 72817
L72863 72845
L72891 72902
L72891 72986
L72863 73042
L72835 73070
L72779 73099
L72554 73099
" />
<path d="M73482 73323
L73454 73352
L73369 73380
L73313 73380
L73229 73352
L73172 73295
L73144 73239
L73116 73127
L73116 73042
L73144 72930
L73172 72874
L73229 72817
L73313 72789
L73369 72789
L73454 72817
L73482 72845
" />
<path d="M73932 73070
L74016 73099
L74044 73127
L74072 73183
L74072 73267
L74044 73323
L74016 73352
L73960 73380
L73735 73380
L73735 72789
L73932 72789
L73988 72817
L74016 72845
L74044 72902
L74044 72958
L74016 73014
L73988 73042
L73932 73070
L73735 73070
" />
<path d="M74185 73436
L74635 73436
" />
<path d="M74972 73070
L74775 73070
" />
<path d="M74775 73380
L74775 72789
L75057 72789
" />
<path d="M75282 73380
L75282 72986
" />
<path d="M75282 72789
L75253 72817
L75282 72845
L75310 72817
L75282 72789
L75282 72845
" />
<path d="M75563 72986
L75563 73380
" />
<path d="M75563 73042
L75591 73014
L75647 72986
L75732 72986
L75788 73014
L75816 73070
L75816 73380
" />
<path d="M76350 73380
L76350 73070
L76322 73014
L76266 72986
L76153 72986
L76097 73014
" />
<path d="M76350 73352
L76294 73380
L76153 73380
L76097 73352
L76069 73295
L76069 73239
L76097 73183
L76153 73155
L76294 73155
L76350 73127
" />
<path d="M76716 73380
L76660 73352
L76631 73295
L76631 72789
" />
<path d="M76800 73436
L77250 73436
" />
<path d="M77391 73380
L77391 72789
L77616 72789
L77672 72817
L77700 72845
L77728 72902
L77728 72986
L77700 73042
L77672 73070
L77616 73099
L77391 73099
" />
<path d="M77981 73380
L77981 72986
" />
<path d="M77981 73099
L78009 73042
L78037 73014
L78094 72986
L78150 72986
" />
<path d="M78431 73380
L78375 73352
L78347 73323
L78319 73267
L78319 73099
L78347 73042
L78375 73014
L78431 72986
L78516 72986
L78572 73014
L78600 73042
L78628 73099
L78628 73267
L78600 73323
L78572 73352
L78516 73380
L78431 73380
" />
<path d="M78881 72986
L78881 73492
L78853 73548
L78797 73577
L78769 73577
" />
<path d="M78881 72789
L78853 72817
L78881 72845
L78909 72817
L78881 72789
L78881 72845
" />
<path d="M79387 73352
L79331 73380
L79219 73380
L79162 73352
L79134 73295
L79134 73070
L79162 73014
L79219 72986
L79331 72986
L79387 73014
L79415 73070
L79415 73127
L79134 73183
" />
<path d="M79922 73352
L79865 73380
L79753 73380
L79697 73352
L79669 73323
L79640 73267
L79640 73099
L79669 73042
L79697 73014
L79753 72986
L79865 72986
L79922 73014
" />
<path d="M80090 72986
L80315 72986
" />
<path d="M80175 72789
L80175 73295
L80203 73352
L80259 73380
L80315 73380
" />
<path d="M80512 73323
L80540 73352
L80512 73380
L80484 73352
L80512 73323
L80512 73380
" />
<path d="M80793 73380
L80793 72789
" />
<path d="M80850 73155
L81018 73380
" />
<path d="M81018 72986
L80793 73211
" />
<path d="M81271 73380
L81271 72986
" />
<path d="M81271 72789
L81243 72817
L81271 72845
L81300 72817
L81271 72789
L81271 72845
" />
<path d="M81806 73352
L81750 73380
L81637 73380
L81581 73352
L81553 73323
L81525 73267
L81525 73099
L81553 73042
L81581 73014
L81637 72986
L81750 72986
L81806 73014
" />
<path d="M82312 73380
L82312 73070
L82284 73014
L82228 72986
L82115 72986
L82059 73014
" />
<path d="M82312 73352
L82256 73380
L82115 73380
L82059 73352
L82031 73295
L82031 73239
L82059 73183
L82115 73155
L82256 73155
L82312 73127
" />
<path d="M82846 73380
L82846 72789
" />
<path d="M82846 73352
L82790 73380
L82678 73380
L82621 73352
L82593 73323
L82565 73267
L82565 73099
L82593 73042
L82621 73014
L82678 72986
L82790 72986
L82846 73014
" />
<path d="M82987 73436
L83437 73436
" />
<path d="M83577 72986
L83577 73577
" />
<path d="M83577 73014
L83634 72986
L83746 72986
L83802 73014
L83831 73042
L83859 73099
L83859 73267
L83831 73323
L83802 73352
L83746 73380
L83634 73380
L83577 73352
" />
<path d="M84365 73352
L84309 73380
L84196 73380
L84140 73352
L84112 73323
L84084 73267
L84084 73099
L84112 73042
L84140 73014
L84196 72986
L84309 72986
L84365 73014
" />
<path d="M84618 73380
L84618 72789
" />
<path d="M84618 73014
L84674 72986
L84787 72986
L84843 73014
L84871 73042
L84899 73099
L84899 73267
L84871 73323
L84843 73352
L84787 73380
L84674 73380
L84618 73352
" />
</g>
<g style="fill:#000000; fill-opacity:0.0; 
stroke:#000000; stroke-width:39.3701; stroke-opacity:1; 
stroke-linecap:round; stroke-linejoin:round;">
</g>
<g style="fill:#000000; fill-opacity:0.0; 
stroke:#000000; stroke-width:59.0551; stroke-opacity:1; 
stroke-linecap:round; stroke-linejoin:round;">
<path d="M69685 71459
L112205 71459
" />
</g>
<g style="fill:#000000; fill-opacity:0.0; 
stroke:#000000; stroke-width:39.3701; stroke-opacity:1; 
stroke-linecap:round; stroke-linejoin:round;">
</g>
<g style="fill:#000000; fill-opacity:0.0; 
stroke:#000000; stroke-width:59.0551; stroke-opacity:1; 
stroke-linecap:round; stroke-linejoin:round;">
<path d="M70192 72289
L70276 72317
L70417 72317
L70473 72289
L70501 72260
L70529 72204
L70529 72148
L70501 72092
L70473 72064
L70417 72036
L70304 72007
L70248 71979
L70220 71951
L70192 71895
L70192 71839
L70220 71782
L70248 71754
L70304 71726
L70445 71726
L70529 71754
" />
<path d="M70782 72317
L70782 71726
" />
<path d="M71035 72317
L71035 72007
L71007 71951
L70951 71923
L70867 71923
L70810 71951
L70782 71979
" />
<path d="M71541 72289
L71485 72317
L71373 72317
L71316 72289
L71288 72232
L71288 72007
L71316 71951
L71373 71923
L71485 71923
L71541 71951
L71570 72007
L71570 72064
L71288 72120
" />
<path d="M72048 72289
L71991 72317
L71879 72317
L71823 72289
L71795 72232
L71795 72007
L71823 71951
L71879 71923
L71991 71923
L72048 71951
L72076 72007
L72076 72064
L71795 72120
" />
<path d="M72244 71923
L72469 71923
" />
<path d="M72329 71726
L72329 72232
L72357 72289
L72413 72317
L72469 72317
" />
<path d="M72666 72260
L72694 72289
L72666 72317
L72638 72289
L72666 72260
L72666 72317
" />
<path d="M72666 71951
L72694 71979
L72666 72007
L72638 71979
L72666 71951
L72666 72007
" />
</g>
<g style="fill:#000000; fill-opacity:0.0; 
stroke:#000000; stroke-width:39.3701; stroke-opacity:1; 
stroke-linecap:round; stroke-linejoin:round;">
</g>
<g style="fill:#000000; fill-opacity:0.0; 
stroke:#000000; stroke-width:118.11; stroke-opacity:1; 
stroke-linecap:round; stroke-linejoin:round;">
<path d="M70220 70826
L70417 70826
" />
<path d="M70501 71136
L70220 71136
L70220 70545
L70501 70545
" />
<path d="M70754 71136
L70754 70545
L70951 70967
L71148 70545
L71148 71136
" />
<path d="M71429 71136
L71429 70545
" />
<path d="M71429 70348
L71401 70376
L71429 70404
L71457 70376
L71429 70348
L71429 70404
" />
<path d="M71710 71136
L71710 70545
L72048 71136
L72048 70545
" />
<path d="M73116 71079
L73088 71108
L73004 71136
L72947 71136
L72863 71108
L72807 71051
L72779 70995
L72751 70883
L72751 70798
L72779 70686
L72807 70629
L72863 70573
L72947 70545
L73004 70545
L73088 70573
L73116 70601
" />
<path d="M73341 70967
L73622 70967
" />
<path d="M73285 71136
L73482 70545
L73679 71136
" />
<path d="M73876 71136
L73876 70545
L74213 71136
L74213 70545
" />
<path d="M75057 70545
L75169 70545
L75225 70573
L75282 70629
L75310 70742
L75310 70939
L75282 71051
L75225 71108
L75169 71136
L75057 71136
L75000 71108
L74944 71051
L74916 70939
L74916 70742
L74944 70629
L75000 70573
L75057 70545
" />
<path d="M75000 70348
L75028 70376
L75000 70404
L74972 70376
L75000 70348
L75000 70404
" />
<path d="M75225 70348
L75253 70376
L75225 70404
L75197 70376
L75225 70348
L75225 70404
" />
<path d="M75507 70545
L75900 70545
L75507 71136
L75900 71136
" />
<path d="M76125 71136
L76125 70545
L76266 70545
L76350 70573
L76406 70629
L76435 70686
L76463 70798
L76463 70883
L76435 70995
L76406 71051
L76350 71108
L76266 71136
L76125 71136
" />
<path d="M76716 70826
L76913 70826
" />
<path d="M76997 71136
L76716 71136
L76716 70545
L76997 70545
" />
<path d="M77250 71136
L77250 70545
L77447 70967
L77644 70545
L77644 71136
" />
<path d="M77925 71136
L77925 70545
" />
<path d="M77925 70348
L77897 70376
L77925 70404
L77953 70376
L77925 70348
L77925 70404
" />
<path d="M78544 71136
L78347 70854
" />
<path d="M78206 71136
L78206 70545
L78431 70545
L78487 70573
L78516 70601
L78544 70658
L78544 70742
L78516 70798
L78487 70826
L78431 70854
L78206 70854
" />
</g>
<g style="fill:#000000; fill-opacity:0.0; 
stroke:#000000; stroke-width:39.3701; stroke-opacity:1; 
stroke-linecap:round; stroke-linejoin:round;">
</g>
<g style="fill:#000000; fill-opacity:0.0; 
stroke:#000000; stroke-width:59.0551; stroke-opacity:1; 
stroke-linecap:round; stroke-linejoin:round;">
<path d="M77559 75396
L77559 76577
" />
</g>
<g style="fill:#000000; fill-opacity:0.0; 
stroke:#000000; stroke-width:39.3701; stroke-opacity:1; 
stroke-linecap:round; stroke-linejoin:round;">
</g>
<g style="fill:#000000; fill-opacity:0.0; 
stroke:#000000; stroke-width:59.0551; stroke-opacity:1; 
stroke-linecap:round; stroke-linejoin:round;">
<path d="M102756 75396
L102756 77955
" />
</g>
<g style="fill:#C2C200; fill-opacity:0.0; 
stroke:#C2C200; stroke-width:59.0551; stroke-opacity:1; 
stroke-linecap:round; stroke-linejoin:round;">
<path d="M31250 44250 A2795.09 2795.09 0.0 0 0 33500 47500 " />
<path d="M33500 47500
L47000 47500
" />
<path d="M50500 30750
L50500 44750
" />
<path d="M46750 47500 A3288.24 3288.24 0.0 0 0 50500 44750 " />
<path d="M31250 43000
L31250 44250
" />
<path d="M31250 30750
L31250 43000
" />
<path d="M31250 30500
L31250 30750
" />
<path d="M50500 30500
L31250 30500
" />
<path d="M50500 30750
L50500 30500
" />
<path d="M31315 39918
L31334 39899
L31371 39880
L31465 39880
L31503 39899
L31521 39918
L31540 39955
L31540 39993
L31521 40049
L31296 40274
L31540 40274
" />
<path d="M31784 39880
L31821 39880
L31859 39899
L31878 39918
L31896 39955
L31915 40030
L31915 40124
L31896 40199
L31878 40237
L31859 40255
L31821 40274
L31784 40274
L31746 40255
L31728 40237
L31709 40199
L31690 40124
L31690 40030
L31709 39955
L31728 39918
L31746 39899
L31784 39880
" />
<path d="M32084 40274
L32084 39880
" />
<path d="M32309 40274
L32140 40049
" />
<path d="M32309 39880
L32084 40105
" />
<path d="M32684 40274
L32459 40274
" />
<path d="M32571 40274
L32571 39880
L32534 39937
L32496 39974
L32459 39993
" />
<path d="M37434 35390
L37415 35409
L37359 35428
L37321 35428
L37265 35409
L37228 35371
L37209 35334
L37190 35259
L37190 35203
L37209 35128
L37228 35090
L37265 35053
L37321 35034
L37359 35034
L37415 35053
L37434 35071
" />
<path d="M37809 35428
L37584 35428
" />
<path d="M37696 35428
L37696 35034
L37659 35090
L37621 35128
L37584 35146
" />
<path d="M34731 33193
L34712 33212
L34656 33231
L34619 33231
L34562 33212
L34525 33175
L34506 33137
L34487 33062
L34487 33006
L34506 32931
L34525 32893
L34562 32856
L34619 32837
L34656 32837
L34712 32856
L34731 32875
" />
<path d="M34881 32875
L34900 32856
L34937 32837
L35031 32837
L35069 32856
L35087 32875
L35106 32912
L35106 32950
L35087 33006
L34862 33231
L35106 33231
" />
<path d="M36184 42140
L36165 42159
L36109 42178
L36071 42178
L36015 42159
L35978 42121
L35959 42084
L35940 42009
L35940 41953
L35959 41878
L35978 41840
L36015 41803
L36071 41784
L36109 41784
L36165 41803
L36184 41821
" />
<path d="M36315 41784
L36559 41784
L36428 41934
L36484 41934
L36521 41953
L36540 41971
L36559 42009
L36559 42103
L36540 42140
L36521 42159
L36484 42178
L36371 42178
L36334 42159
L36315 42140
" />
<path d="M40684 39890
L40665 39909
L40609 39928
L40571 39928
L40515 39909
L40478 39871
L40459 39834
L40440 39759
L40440 39703
L40459 39628
L40478 39590
L40515 39553
L40571 39534
L40609 39534
L40665 39553
L40684 39571
" />
<path d="M41021 39665
L41021 39928
" />
<path d="M40928 39515
L40834 39796
L41078 39796
" />
<path d="M44434 31140
L44415 31159
L44359 31178
L44321 31178
L44265 31159
L44228 31121
L44209 31084
L44190 31009
L44190 30953
L44209 30878
L44228 30840
L44265 30803
L44321 30784
L44359 30784
L44415 30803
L44434 30821
" />
<path d="M44790 30784
L44603 30784
L44584 30971
L44603 30953
L44640 30934
L44734 30934
L44771 30953
L44790 30971
L44809 31009
L44809 31103
L44790 31140
L44771 31159
L44734 31178
L44640 31178
L44603 31159
L44584 31140
" />
<path d="M47746 32178
L47559 32178
L47559 31784
" />
<path d="M47859 32159
L47915 32178
L48009 32178
L48046 32159
L48065 32140
L48084 32103
L48084 32065
L48065 32028
L48046 32009
L48009 31990
L47934 31971
L47896 31953
L47878 31934
L47859 31896
L47859 31859
L47878 31821
L47896 31803
L47934 31784
L48028 31784
L48084 31803
" />
<path d="M48459 32178
L48234 32178
" />
<path d="M48346 32178
L48346 31784
L48309 31840
L48271 31878
L48234 31896
" />
<path d="M40860 45678
L40860 45284
L41010 45284
L41048 45303
L41067 45321
L41085 45359
L41085 45415
L41067 45453
L41048 45471
L41010 45490
L40860 45490
" />
<path d="M41460 45678
L41235 45678
" />
<path d="M41348 45678
L41348 45284
L41310 45340
L41273 45378
L41235 45396
" />
<path d="M41035 33891
L40998 33872
L40960 33835
L40904 33779
L40866 33760
L40829 33760
" />
<path d="M40848 33854
L40810 33835
L40773 33797
L40754 33722
L40754 33591
L40773 33516
L40810 33479
L40848 33460
L40923 33460
L40960 33479
L40998 33516
L41016 33591
L41016 33722
L40998 33797
L40960 33835
L40923 33854
L40848 33854
" />
<path d="M41391 33854
L41166 33854
" />
<path d="M41279 33854
L41279 33460
L41241 33516
L41204 33554
L41166 33572
" />
<path d="M49467 37315
L49430 37296
L49392 37259
L49336 37203
L49298 37184
L49261 37184
" />
<path d="M49280 37278
L49242 37259
L49205 37221
L49186 37146
L49186 37015
L49205 36940
L49242 36903
L49280 36884
L49355 36884
L49392 36903
L49430 36940
L49448 37015
L49448 37146
L49430 37221
L49392 37259
L49355 37278
L49280 37278
" />
<path d="M49598 36921
L49617 36903
L49654 36884
L49748 36884
L49786 36903
L49804 36921
L49823 36959
L49823 36996
L49804 37053
L49579 37278
L49823 37278
" />
<path d="M48515 42037
L48478 42018
L48440 41981
L48384 41925
L48346 41906
L48309 41906
" />
<path d="M48328 42000
L48290 41981
L48253 41943
L48234 41868
L48234 41737
L48253 41662
L48290 41625
L48328 41606
L48403 41606
L48440 41625
L48478 41662
L48496 41737
L48496 41868
L48478 41943
L48440 41981
L48403 42000
L48328 42000
" />
<path d="M48627 41606
L48871 41606
L48740 41756
L48796 41756
L48834 41775
L48852 41793
L48871 41831
L48871 41925
L48852 41962
L48834 41981
L48796 42000
L48684 42000
L48646 41981
L48627 41962
" />
<path d="M41945 37141
L41908 37122
L41870 37085
L41814 37029
L41776 37010
L41739 37010
" />
<path d="M41758 37104
L41720 37085
L41683 37047
L41664 36972
L41664 36841
L41683 36766
L41720 36729
L41758 36710
L41833 36710
L41870 36729
L41908 36766
L41926 36841
L41926 36972
L41908 37047
L41870 37085
L41833 37104
L41758 37104
" />
<path d="M42264 36841
L42264 37104
" />
<path d="M42170 36691
L42076 36972
L42320 36972
" />
<path d="M36184 36178
L36053 35990
" />
<path d="M35959 36178
L35959 35784
L36109 35784
L36146 35803
L36165 35821
L36184 35859
L36184 35915
L36165 35953
L36146 35971
L36109 35990
L35959 35990
" />
<path d="M36559 36178
L36334 36178
" />
<path d="M36446 36178
L36446 35784
L36409 35840
L36371 35878
L36334 35896
" />
<path d="M36184 37428
L36053 37240
" />
<path d="M35959 37428
L35959 37034
L36109 37034
L36146 37053
L36165 37071
L36184 37109
L36184 37165
L36165 37203
L36146 37221
L36109 37240
L35959 37240
" />
<path d="M36334 37071
L36353 37053
L36390 37034
L36484 37034
L36521 37053
L36540 37071
L36559 37109
L36559 37146
L36540 37203
L36315 37428
L36559 37428
" />
<path d="M36184 38678
L36053 38490
" />
<path d="M35959 38678
L35959 38284
L36109 38284
L36146 38303
L36165 38321
L36184 38359
L36184 38415
L36165 38453
L36146 38471
L36109 38490
L35959 38490
" />
<path d="M36315 38284
L36559 38284
L36428 38434
L36484 38434
L36521 38453
L36540 38471
L36559 38509
L36559 38603
L36540 38640
L36521 38659
L36484 38678
L36371 38678
L36334 38659
L36315 38640
" />
<path d="M32434 42178
L32303 41990
" />
<path d="M32209 42178
L32209 41784
L32359 41784
L32396 41803
L32415 41821
L32434 41859
L32434 41915
L32415 41953
L32396 41971
L32359 41990
L32209 41990
" />
<path d="M32771 41915
L32771 42178
" />
<path d="M32678 41765
L32584 42046
L32828 42046
" />
<path d="M47684 35178
L47553 34990
" />
<path d="M47459 35178
L47459 34784
L47609 34784
L47646 34803
L47665 34821
L47684 34859
L47684 34915
L47665 34953
L47646 34971
L47609 34990
L47459 34990
" />
<path d="M48040 34784
L47853 34784
L47834 34971
L47853 34953
L47890 34934
L47984 34934
L48021 34953
L48040 34971
L48059 35009
L48059 35103
L48040 35140
L48021 35159
L47984 35178
L47890 35178
L47853 35159
L47834 35140
" />
<path d="M37633 37160
L37502 36972
" />
<path d="M37408 37160
L37408 36766
L37558 36766
L37595 36785
L37614 36803
L37633 36841
L37633 36897
L37614 36935
L37595 36953
L37558 36972
L37408 36972
" />
<path d="M37970 36766
L37895 36766
L37858 36785
L37839 36803
L37802 36860
L37783 36935
L37783 37085
L37802 37122
L37820 37141
L37858 37160
L37933 37160
L37970 37141
L37989 37122
L38008 37085
L38008 36991
L37989 36953
L37970 36935
L37933 36916
L37858 36916
L37820 36935
L37802 36953
L37783 36991
" />
<path d="M44184 40678
L44053 40490
" />
<path d="M43959 40678
L43959 40284
L44109 40284
L44146 40303
L44165 40321
L44184 40359
L44184 40415
L44165 40453
L44146 40471
L44109 40490
L43959 40490
" />
<path d="M44315 40284
L44578 40284
L44409 40678
" />
<path d="M44184 41928
L44053 41740
" />
<path d="M43959 41928
L43959 41534
L44109 41534
L44146 41553
L44165 41571
L44184 41609
L44184 41665
L44165 41703
L44146 41721
L44109 41740
L43959 41740
" />
<path d="M44409 41703
L44371 41684
L44353 41665
L44334 41628
L44334 41609
L44353 41571
L44371 41553
L44409 41534
L44484 41534
L44521 41553
L44540 41571
L44559 41609
L44559 41628
L44540 41665
L44521 41684
L44484 41703
L44409 41703
L44371 41721
L44353 41740
L44334 41778
L44334 41853
L44353 41890
L44371 41909
L44409 41928
L44484 41928
L44521 41909
L44540 41890
L44559 41853
L44559 41778
L44540 41740
L44521 41721
L44484 41703
" />
<path d="M49434 41428
L49303 41240
" />
<path d="M49209 41428
L49209 41034
L49359 41034
L49396 41053
L49415 41071
L49434 41109
L49434 41165
L49415 41203
L49396 41221
L49359 41240
L49209 41240
" />
<path d="M49621 41428
L49696 41428
L49734 41409
L49753 41390
L49790 41334
L49809 41259
L49809 41109
L49790 41071
L49771 41053
L49734 41034
L49659 41034
L49621 41053
L49603 41071
L49584 41109
L49584 41203
L49603 41240
L49621 41259
L49659 41278
L49734 41278
L49771 41259
L49790 41240
L49809 41203
" />
<path d="M47178 36503
L46990 36634
" />
<path d="M47178 36728
L46784 36728
L46784 36578
L46803 36540
L46821 36521
L46859 36503
L46915 36503
L46953 36521
L46971 36540
L46990 36578
L46990 36728
" />
<path d="M47178 36128
L47178 36353
" />
<path d="M47178 36240
L46784 36240
L46840 36278
L46878 36315
L46896 36353
" />
<path d="M46784 35884
L46784 35846
L46803 35809
L46821 35790
L46859 35771
L46934 35753
L47028 35753
L47103 35771
L47140 35790
L47159 35809
L47178 35846
L47178 35884
L47159 35921
L47140 35940
L47103 35959
L47028 35978
L46934 35978
L46859 35959
L46821 35940
L46803 35921
L46784 35884
" />
</g>
<g style="fill:#008484; fill-opacity:0.0; 
stroke:#008484; stroke-width:59.0551; stroke-opacity:1; 
stroke-linecap:round; stroke-linejoin:round;">
</g>
<g style="fill:#008484; fill-opacity:0.0; 
stroke:#008484; stroke-width:47.2441; stroke-opacity:1; 
stroke-linecap:round; stroke-linejoin:round;">
<path d="M32830 39627
L30007 39627
" />
<path d="M32830 35840
L30007 35840
" />
<path d="M32830 39627
L32830 35840
" />
<path d="M30007 39627
L30007 35840
" />
<path d="M30007 39135
L28039 39135
" />
<path d="M30007 36332
L28039 36332
" />
<path d="M30007 39135
L30007 36332
" />
<path d="M28039 39135
L28039 36332
" />
<path d="M28039 38938
L24101 38938
" />
<path d="M28039 36529
L24101 36529
" />
<path d="M28039 38938
L28039 36529
" />
<path d="M24101 38938
L24101 36529
" />
<path d="M33555 34500
L34145 34500
" />
<path d="M33850 34204
L33850 34795
" />
<path d="M32960 33590
L32960 35409
" />
<path d="M36944 33590
L36944 35409
" />
<path d="M32960 33590
L33551 33590
" />
<path d="M33551 33590
L33846 33885
" />
<path d="M33846 33885
L34141 33590
" />
<path d="M34141 33590
L36944 33590
" />
<path d="M32960 35409
L33551 35409
" />
<path d="M33551 35409
L33846 35114
" />
<path d="M33846 35114
L34141 35409
" />
<path d="M34141 35409
L36944 35409
" />
<path d="M32464 34500
L32960 34500
" />
<path d="M37440 34500
L36944 34500
" />
<path d="M36194 31750
L35604 31750
" />
<path d="M35899 32045
L35899 31454
" />
<path d="M36789 32659
L36789 30840
" />
<path d="M32805 32659
L32805 30840
" />
<path d="M36789 32659
L36198 32659
" />
<path d="M36198 32659
L35903 32364
" />
<path d="M35903 32364
L35608 32659
" />
<path d="M35608 32659
L32805 32659
" />
<path d="M36789 30840
L36198 30840
" />
<path d="M36198 30840
L35903 31135
" />
<path d="M35903 31135
L35608 30840
" />
<path d="M35608 30840
L32805 30840
" />
<path d="M37285 31750
L36789 31750
" />
<path d="M32309 31750
L32805 31750
" />
<path d="M35055 40500
L35645 40500
" />
<path d="M35350 40204
L35350 40795
" />
<path d="M34460 39590
L34460 41409
" />
<path d="M38444 39590
L38444 41409
" />
<path d="M34460 39590
L35051 39590
" />
<path d="M35051 39590
L35346 39885
" />
<path d="M35346 39885
L35641 39590
" />
<path d="M35641 39590
L38444 39590
" />
<path d="M34460 41409
L35051 41409
" />
<path d="M35051 41409
L35346 41114
" />
<path d="M35346 41114
L35641 41409
" />
<path d="M35641 41409
L38444 41409
" />
<path d="M33964 40500
L34460 40500
" />
<path d="M38940 40500
L38444 40500
" />
<path d="M39805 38250
L40395 38250
" />
<path d="M40100 37954
L40100 38545
" />
<path d="M39210 37340
L39210 39159
" />
<path d="M43194 37340
L43194 39159
" />
<path d="M39210 37340
L39801 37340
" />
<path d="M39801 37340
L40096 37635
" />
<path d="M40096 37635
L40391 37340
" />
<path d="M40391 37340
L43194 37340
" />
<path d="M39210 39159
L39801 39159
" />
<path d="M39801 39159
L40096 38864
" />
<path d="M40096 38864
L40391 39159
" />
<path d="M40391 39159
L43194 39159
" />
<path d="M38714 38250
L39210 38250
" />
<path d="M43690 38250
L43194 38250
" />
<path d="M40555 31750
L41145 31750
" />
<path d="M40850 31454
L40850 32045
" />
<path d="M39960 30840
L39960 32659
" />
<path d="M43944 30840
L43944 32659
" />
<path d="M39960 30840
L40551 30840
" />
<path d="M40551 30840
L40846 31135
" />
<path d="M40846 31135
L41141 30840
" />
<path d="M41141 30840
L43944 30840
" />
<path d="M39960 32659
L40551 32659
" />
<path d="M40551 32659
L40846 32364
" />
<path d="M40846 32364
L41141 32659
" />
<path d="M41141 32659
L43944 32659
" />
<path d="M39464 31750
L39960 31750
" />
<path d="M44440 31750
L43944 31750
" />
</g>
<g style="fill:#008484; fill-opacity:0.0; 
stroke:#008484; stroke-width:59.0551; stroke-opacity:1; 
stroke-linecap:round; stroke-linejoin:round;">
<path d="M45614 32543
L50338 32543
" />
<path d="M45614 31007
L50338 31007
" />
<path d="M50338 31007
L50338 32543
" />
<path d="M45614 31007
L45614 32543
" />
</g>
<g style="fill:#008484; fill-opacity:0.0; 
stroke:#008484; stroke-width:47.2441; stroke-opacity:1; 
stroke-linecap:round; stroke-linejoin:round;">
<path d="M35250 47066
L47061 47066
" />
<path d="M47061 42933
L35250 42933
" />
<path d="M47061 47066.9 A2066.93 2066.93 0.0 0 0 47061 42933.1 " />
<path d="M35250 42933.1 A2066.93 2066.93 0.0 0 0 35250 47066.9 " />
<path d="M39271 33791
L39271 35208
" />
<path d="M41023.6 34500 A1023.62 1023.62 0.0 0 0 39276.2 33776.2 " />
<path d="M39276.2 35223.8 A1023.62 1023.62 0.0 0 0 41023.6 34500 " />
<path d="M48021 35541
L48021 36958
" />
<path d="M49773.6 36250 A1023.62 1023.62 0.0 0 0 48026.2 35526.2 " />
<path d="M48026.2 36973.8 A1023.62 1023.62 0.0 0 0 49773.6 36250 " />
<path d="M48486 39070
L48836 38719
" />
<path d="M48836 38719
L48530 38413
" />
<path d="M48530 38413
L48179 38763
" />
<path d="M48180.1 38763.9 A1897.64 1897.64 0.0 1 0 48486.2 39070 " />
<path d="M44679 36736
L45030 37086
" />
<path d="M45030 37086
L45336 36780
" />
<path d="M45336 36780
L44986 36429
" />
<path d="M44986.1 36430.1 A1897.64 1897.64 0.0 1 0 44680 36736.2 " />
<path d="M33767 35911
L35232 35911
" />
<path d="M33767 36588
L35232 36588
" />
<path d="M33767 37161
L35232 37161
" />
<path d="M33767 37838
L35232 37838
" />
<path d="M35232 39088
L33767 39088
" />
<path d="M35232 38411
L33767 38411
" />
<path d="M33517 41911
L34982 41911
" />
<path d="M33517 42588
L34982 42588
" />
<path d="M49232 34588
L47767 34588
" />
<path d="M49232 33911
L47767 33911
" />
<path d="M38017 35911
L39482 35911
" />
<path d="M38017 36588
L39482 36588
" />
<path d="M43232 41088
L41767 41088
" />
<path d="M43232 40411
L41767 40411
" />
<path d="M41767 41661
L43232 41661
" />
<path d="M41767 42338
L43232 42338
" />
<path d="M49161 40232
L49161 38767
" />
<path d="M49838 40232
L49838 38767
" />
<path d="M45911 36232
L45911 34767
" />
<path d="M46588 36232
L46588 34767
" />
</g> 
</svg>
