G04 #@! TF.FileFunction,Legend,Top*
%FSLAX46Y46*%
G04 Gerber Fmt 4.6, Leading zero omitted, Abs format (unit mm)*
G04 Created by KiCad (PCBNEW 4.0.5) date 06/07/17 16:03:37*
%MOMM*%
%LPD*%
G01*
G04 APERTURE LIST*
%ADD10C,0.100000*%
%ADD11C,0.120000*%
%ADD12C,0.150000*%
G04 APERTURE END LIST*
D10*
D11*
X83390000Y-100655000D02*
X76220000Y-100655000D01*
X83390000Y-91035000D02*
X76220000Y-91035000D01*
X83390000Y-100655000D02*
X83390000Y-91035000D01*
X76220000Y-100655000D02*
X76220000Y-91035000D01*
X76220000Y-99405000D02*
X71220000Y-99405000D01*
X76220000Y-92285000D02*
X71220000Y-92285000D01*
X76220000Y-99405000D02*
X76220000Y-92285000D01*
X71220000Y-99405000D02*
X71220000Y-92285000D01*
X71220000Y-98905000D02*
X61219000Y-98905000D01*
X71220000Y-92785000D02*
X61219000Y-92785000D01*
X71220000Y-98905000D02*
X71220000Y-92785000D01*
X61219000Y-98905000D02*
X61219000Y-92785000D01*
X85230000Y-87630000D02*
X86730000Y-87630000D01*
X85980000Y-86880000D02*
X85980000Y-88380000D01*
X83720000Y-85320000D02*
X83720000Y-89940000D01*
X93840000Y-85320000D02*
X93840000Y-89940000D01*
X83720000Y-85320000D02*
X85220000Y-85320000D01*
X85220000Y-85320000D02*
X85970000Y-86070000D01*
X85970000Y-86070000D02*
X86720000Y-85320000D01*
X86720000Y-85320000D02*
X93840000Y-85320000D01*
X83720000Y-89940000D02*
X85220000Y-89940000D01*
X85220000Y-89940000D02*
X85970000Y-89190000D01*
X85970000Y-89190000D02*
X86720000Y-89940000D01*
X86720000Y-89940000D02*
X93840000Y-89940000D01*
X82460000Y-87630000D02*
X83720000Y-87630000D01*
X95100000Y-87630000D02*
X93840000Y-87630000D01*
X91935000Y-80645000D02*
X90435000Y-80645000D01*
X91185000Y-81395000D02*
X91185000Y-79895000D01*
X93445000Y-82955000D02*
X93445000Y-78335000D01*
X83325000Y-82955000D02*
X83325000Y-78335000D01*
X93445000Y-82955000D02*
X91945000Y-82955000D01*
X91945000Y-82955000D02*
X91195000Y-82205000D01*
X91195000Y-82205000D02*
X90445000Y-82955000D01*
X90445000Y-82955000D02*
X83325000Y-82955000D01*
X93445000Y-78335000D02*
X91945000Y-78335000D01*
X91945000Y-78335000D02*
X91195000Y-79085000D01*
X91195000Y-79085000D02*
X90445000Y-78335000D01*
X90445000Y-78335000D02*
X83325000Y-78335000D01*
X94705000Y-80645000D02*
X93445000Y-80645000D01*
X82065000Y-80645000D02*
X83325000Y-80645000D01*
X89040000Y-102870000D02*
X90540000Y-102870000D01*
X89790000Y-102120000D02*
X89790000Y-103620000D01*
X87530000Y-100560000D02*
X87530000Y-105180000D01*
X97650000Y-100560000D02*
X97650000Y-105180000D01*
X87530000Y-100560000D02*
X89030000Y-100560000D01*
X89030000Y-100560000D02*
X89780000Y-101310000D01*
X89780000Y-101310000D02*
X90530000Y-100560000D01*
X90530000Y-100560000D02*
X97650000Y-100560000D01*
X87530000Y-105180000D02*
X89030000Y-105180000D01*
X89030000Y-105180000D02*
X89780000Y-104430000D01*
X89780000Y-104430000D02*
X90530000Y-105180000D01*
X90530000Y-105180000D02*
X97650000Y-105180000D01*
X86270000Y-102870000D02*
X87530000Y-102870000D01*
X98910000Y-102870000D02*
X97650000Y-102870000D01*
X101105000Y-97155000D02*
X102605000Y-97155000D01*
X101855000Y-96405000D02*
X101855000Y-97905000D01*
X99595000Y-94845000D02*
X99595000Y-99465000D01*
X109715000Y-94845000D02*
X109715000Y-99465000D01*
X99595000Y-94845000D02*
X101095000Y-94845000D01*
X101095000Y-94845000D02*
X101845000Y-95595000D01*
X101845000Y-95595000D02*
X102595000Y-94845000D01*
X102595000Y-94845000D02*
X109715000Y-94845000D01*
X99595000Y-99465000D02*
X101095000Y-99465000D01*
X101095000Y-99465000D02*
X101845000Y-98715000D01*
X101845000Y-98715000D02*
X102595000Y-99465000D01*
X102595000Y-99465000D02*
X109715000Y-99465000D01*
X98335000Y-97155000D02*
X99595000Y-97155000D01*
X110975000Y-97155000D02*
X109715000Y-97155000D01*
X103010000Y-80645000D02*
X104510000Y-80645000D01*
X103760000Y-79895000D02*
X103760000Y-81395000D01*
X101500000Y-78335000D02*
X101500000Y-82955000D01*
X111620000Y-78335000D02*
X111620000Y-82955000D01*
X101500000Y-78335000D02*
X103000000Y-78335000D01*
X103000000Y-78335000D02*
X103750000Y-79085000D01*
X103750000Y-79085000D02*
X104500000Y-78335000D01*
X104500000Y-78335000D02*
X111620000Y-78335000D01*
X101500000Y-82955000D02*
X103000000Y-82955000D01*
X103000000Y-82955000D02*
X103750000Y-82205000D01*
X103750000Y-82205000D02*
X104500000Y-82955000D01*
X104500000Y-82955000D02*
X111620000Y-82955000D01*
X100240000Y-80645000D02*
X101500000Y-80645000D01*
X112880000Y-80645000D02*
X111620000Y-80645000D01*
D12*
X115860000Y-82660000D02*
X127860000Y-82660000D01*
X115860000Y-78760000D02*
X127860000Y-78760000D01*
X127860000Y-78760000D02*
X127860000Y-82660000D01*
X115860000Y-78760000D02*
X115860000Y-82660000D01*
D11*
X89535000Y-119550000D02*
X119535000Y-119550000D01*
X119535000Y-109050000D02*
X89535000Y-109050000D01*
X119535000Y-119550000D02*
G75*
G03X119535000Y-109050000I0J5250000D01*
G01*
X89535000Y-109050000D02*
G75*
G03X89535000Y-119550000I0J-5250000D01*
G01*
X99750000Y-85830000D02*
X99750000Y-89430000D01*
X99761522Y-85791522D02*
G75*
G02X104200000Y-87630000I1838478J-1838478D01*
G01*
X99761522Y-89468478D02*
G75*
G03X104200000Y-87630000I1838478J1838478D01*
G01*
X121975000Y-90275000D02*
X121975000Y-93875000D01*
X121986522Y-90236522D02*
G75*
G02X126425000Y-92075000I1838478J-1838478D01*
G01*
X121986522Y-93913478D02*
G75*
G03X126425000Y-92075000I1838478J1838478D01*
G01*
X123154902Y-99237916D02*
X124045856Y-98346961D01*
X124045856Y-98346961D02*
X123268039Y-97569144D01*
X123268039Y-97569144D02*
X122377084Y-98460098D01*
X122377371Y-98460326D02*
G75*
G03X123154902Y-99237916I-2997371J-3774674D01*
G01*
X113487084Y-93309902D02*
X114378039Y-94200856D01*
X114378039Y-94200856D02*
X115155856Y-93423039D01*
X115155856Y-93423039D02*
X114264902Y-92532084D01*
X114264674Y-92532371D02*
G75*
G03X113487084Y-93309902I-3774674J2997371D01*
G01*
X85770000Y-91215000D02*
X89490000Y-91215000D01*
X85770000Y-92935000D02*
X89490000Y-92935000D01*
X85770000Y-94390000D02*
X89490000Y-94390000D01*
X85770000Y-96110000D02*
X89490000Y-96110000D01*
X89490000Y-99285000D02*
X85770000Y-99285000D01*
X89490000Y-97565000D02*
X85770000Y-97565000D01*
X85135000Y-106455000D02*
X88855000Y-106455000D01*
X85135000Y-108175000D02*
X88855000Y-108175000D01*
X125050000Y-87855000D02*
X121330000Y-87855000D01*
X125050000Y-86135000D02*
X121330000Y-86135000D01*
X96565000Y-91215000D02*
X100285000Y-91215000D01*
X96565000Y-92935000D02*
X100285000Y-92935000D01*
X109810000Y-104365000D02*
X106090000Y-104365000D01*
X109810000Y-102645000D02*
X106090000Y-102645000D01*
X106090000Y-105820000D02*
X109810000Y-105820000D01*
X106090000Y-107540000D02*
X109810000Y-107540000D01*
X124870000Y-102190000D02*
X124870000Y-98470000D01*
X126590000Y-102190000D02*
X126590000Y-98470000D01*
X116615000Y-92030000D02*
X116615000Y-88310000D01*
X118335000Y-92030000D02*
X118335000Y-88310000D01*
D12*
X79541905Y-101392619D02*
X79589524Y-101345000D01*
X79684762Y-101297381D01*
X79922858Y-101297381D01*
X80018096Y-101345000D01*
X80065715Y-101392619D01*
X80113334Y-101487857D01*
X80113334Y-101583095D01*
X80065715Y-101725952D01*
X79494286Y-102297381D01*
X80113334Y-102297381D01*
X80732381Y-101297381D02*
X80827620Y-101297381D01*
X80922858Y-101345000D01*
X80970477Y-101392619D01*
X81018096Y-101487857D01*
X81065715Y-101678333D01*
X81065715Y-101916429D01*
X81018096Y-102106905D01*
X80970477Y-102202143D01*
X80922858Y-102249762D01*
X80827620Y-102297381D01*
X80732381Y-102297381D01*
X80637143Y-102249762D01*
X80589524Y-102202143D01*
X80541905Y-102106905D01*
X80494286Y-101916429D01*
X80494286Y-101678333D01*
X80541905Y-101487857D01*
X80589524Y-101392619D01*
X80637143Y-101345000D01*
X80732381Y-101297381D01*
X81494286Y-102297381D02*
X81494286Y-101297381D01*
X82065715Y-102297381D02*
X81637143Y-101725952D01*
X82065715Y-101297381D02*
X81494286Y-101868810D01*
X83018096Y-102297381D02*
X82446667Y-102297381D01*
X82732381Y-102297381D02*
X82732381Y-101297381D01*
X82637143Y-101440238D01*
X82541905Y-101535476D01*
X82446667Y-101583095D01*
X95083334Y-89892143D02*
X95035715Y-89939762D01*
X94892858Y-89987381D01*
X94797620Y-89987381D01*
X94654762Y-89939762D01*
X94559524Y-89844524D01*
X94511905Y-89749286D01*
X94464286Y-89558810D01*
X94464286Y-89415952D01*
X94511905Y-89225476D01*
X94559524Y-89130238D01*
X94654762Y-89035000D01*
X94797620Y-88987381D01*
X94892858Y-88987381D01*
X95035715Y-89035000D01*
X95083334Y-89082619D01*
X96035715Y-89987381D02*
X95464286Y-89987381D01*
X95750000Y-89987381D02*
X95750000Y-88987381D01*
X95654762Y-89130238D01*
X95559524Y-89225476D01*
X95464286Y-89273095D01*
X88218334Y-84312143D02*
X88170715Y-84359762D01*
X88027858Y-84407381D01*
X87932620Y-84407381D01*
X87789762Y-84359762D01*
X87694524Y-84264524D01*
X87646905Y-84169286D01*
X87599286Y-83978810D01*
X87599286Y-83835952D01*
X87646905Y-83645476D01*
X87694524Y-83550238D01*
X87789762Y-83455000D01*
X87932620Y-83407381D01*
X88027858Y-83407381D01*
X88170715Y-83455000D01*
X88218334Y-83502619D01*
X88599286Y-83502619D02*
X88646905Y-83455000D01*
X88742143Y-83407381D01*
X88980239Y-83407381D01*
X89075477Y-83455000D01*
X89123096Y-83502619D01*
X89170715Y-83597857D01*
X89170715Y-83693095D01*
X89123096Y-83835952D01*
X88551667Y-84407381D01*
X89170715Y-84407381D01*
X91908334Y-107037143D02*
X91860715Y-107084762D01*
X91717858Y-107132381D01*
X91622620Y-107132381D01*
X91479762Y-107084762D01*
X91384524Y-106989524D01*
X91336905Y-106894286D01*
X91289286Y-106703810D01*
X91289286Y-106560952D01*
X91336905Y-106370476D01*
X91384524Y-106275238D01*
X91479762Y-106180000D01*
X91622620Y-106132381D01*
X91717858Y-106132381D01*
X91860715Y-106180000D01*
X91908334Y-106227619D01*
X92241667Y-106132381D02*
X92860715Y-106132381D01*
X92527381Y-106513333D01*
X92670239Y-106513333D01*
X92765477Y-106560952D01*
X92813096Y-106608571D01*
X92860715Y-106703810D01*
X92860715Y-106941905D01*
X92813096Y-107037143D01*
X92765477Y-107084762D01*
X92670239Y-107132381D01*
X92384524Y-107132381D01*
X92289286Y-107084762D01*
X92241667Y-107037143D01*
X103338334Y-101322143D02*
X103290715Y-101369762D01*
X103147858Y-101417381D01*
X103052620Y-101417381D01*
X102909762Y-101369762D01*
X102814524Y-101274524D01*
X102766905Y-101179286D01*
X102719286Y-100988810D01*
X102719286Y-100845952D01*
X102766905Y-100655476D01*
X102814524Y-100560238D01*
X102909762Y-100465000D01*
X103052620Y-100417381D01*
X103147858Y-100417381D01*
X103290715Y-100465000D01*
X103338334Y-100512619D01*
X104195477Y-100750714D02*
X104195477Y-101417381D01*
X103957381Y-100369762D02*
X103719286Y-101084048D01*
X104338334Y-101084048D01*
X112863334Y-79097143D02*
X112815715Y-79144762D01*
X112672858Y-79192381D01*
X112577620Y-79192381D01*
X112434762Y-79144762D01*
X112339524Y-79049524D01*
X112291905Y-78954286D01*
X112244286Y-78763810D01*
X112244286Y-78620952D01*
X112291905Y-78430476D01*
X112339524Y-78335238D01*
X112434762Y-78240000D01*
X112577620Y-78192381D01*
X112672858Y-78192381D01*
X112815715Y-78240000D01*
X112863334Y-78287619D01*
X113768096Y-78192381D02*
X113291905Y-78192381D01*
X113244286Y-78668571D01*
X113291905Y-78620952D01*
X113387143Y-78573333D01*
X113625239Y-78573333D01*
X113720477Y-78620952D01*
X113768096Y-78668571D01*
X113815715Y-78763810D01*
X113815715Y-79001905D01*
X113768096Y-79097143D01*
X113720477Y-79144762D01*
X113625239Y-79192381D01*
X113387143Y-79192381D01*
X113291905Y-79144762D01*
X113244286Y-79097143D01*
X121277143Y-81732381D02*
X120800952Y-81732381D01*
X120800952Y-80732381D01*
X121562857Y-81684762D02*
X121705714Y-81732381D01*
X121943810Y-81732381D01*
X122039048Y-81684762D01*
X122086667Y-81637143D01*
X122134286Y-81541905D01*
X122134286Y-81446667D01*
X122086667Y-81351429D01*
X122039048Y-81303810D01*
X121943810Y-81256190D01*
X121753333Y-81208571D01*
X121658095Y-81160952D01*
X121610476Y-81113333D01*
X121562857Y-81018095D01*
X121562857Y-80922857D01*
X121610476Y-80827619D01*
X121658095Y-80780000D01*
X121753333Y-80732381D01*
X121991429Y-80732381D01*
X122134286Y-80780000D01*
X123086667Y-81732381D02*
X122515238Y-81732381D01*
X122800952Y-81732381D02*
X122800952Y-80732381D01*
X122705714Y-80875238D01*
X122610476Y-80970476D01*
X122515238Y-81018095D01*
X103786905Y-116022381D02*
X103786905Y-115022381D01*
X104167858Y-115022381D01*
X104263096Y-115070000D01*
X104310715Y-115117619D01*
X104358334Y-115212857D01*
X104358334Y-115355714D01*
X104310715Y-115450952D01*
X104263096Y-115498571D01*
X104167858Y-115546190D01*
X103786905Y-115546190D01*
X105310715Y-116022381D02*
X104739286Y-116022381D01*
X105025000Y-116022381D02*
X105025000Y-115022381D01*
X104929762Y-115165238D01*
X104834524Y-115260476D01*
X104739286Y-115308095D01*
X104230182Y-86084659D02*
X104134944Y-86037040D01*
X104039706Y-85941802D01*
X103896849Y-85798945D01*
X103801610Y-85751326D01*
X103706372Y-85751326D01*
X103753991Y-85989421D02*
X103658753Y-85941802D01*
X103563515Y-85846564D01*
X103515896Y-85656088D01*
X103515896Y-85322754D01*
X103563515Y-85132278D01*
X103658753Y-85037040D01*
X103753991Y-84989421D01*
X103944468Y-84989421D01*
X104039706Y-85037040D01*
X104134944Y-85132278D01*
X104182563Y-85322754D01*
X104182563Y-85656088D01*
X104134944Y-85846564D01*
X104039706Y-85941802D01*
X103944468Y-85989421D01*
X103753991Y-85989421D01*
X105134944Y-85989421D02*
X104563515Y-85989421D01*
X104849229Y-85989421D02*
X104849229Y-84989421D01*
X104753991Y-85132278D01*
X104658753Y-85227516D01*
X104563515Y-85275135D01*
X125647462Y-94781619D02*
X125552224Y-94734000D01*
X125456986Y-94638762D01*
X125314129Y-94495905D01*
X125218890Y-94448286D01*
X125123652Y-94448286D01*
X125171271Y-94686381D02*
X125076033Y-94638762D01*
X124980795Y-94543524D01*
X124933176Y-94353048D01*
X124933176Y-94019714D01*
X124980795Y-93829238D01*
X125076033Y-93734000D01*
X125171271Y-93686381D01*
X125361748Y-93686381D01*
X125456986Y-93734000D01*
X125552224Y-93829238D01*
X125599843Y-94019714D01*
X125599843Y-94353048D01*
X125552224Y-94543524D01*
X125456986Y-94638762D01*
X125361748Y-94686381D01*
X125171271Y-94686381D01*
X125980795Y-93781619D02*
X126028414Y-93734000D01*
X126123652Y-93686381D01*
X126361748Y-93686381D01*
X126456986Y-93734000D01*
X126504605Y-93781619D01*
X126552224Y-93876857D01*
X126552224Y-93972095D01*
X126504605Y-94114952D01*
X125933176Y-94686381D01*
X126552224Y-94686381D01*
X123229382Y-106775499D02*
X123134144Y-106727880D01*
X123038906Y-106632642D01*
X122896049Y-106489785D01*
X122800810Y-106442166D01*
X122705572Y-106442166D01*
X122753191Y-106680261D02*
X122657953Y-106632642D01*
X122562715Y-106537404D01*
X122515096Y-106346928D01*
X122515096Y-106013594D01*
X122562715Y-105823118D01*
X122657953Y-105727880D01*
X122753191Y-105680261D01*
X122943668Y-105680261D01*
X123038906Y-105727880D01*
X123134144Y-105823118D01*
X123181763Y-106013594D01*
X123181763Y-106346928D01*
X123134144Y-106537404D01*
X123038906Y-106632642D01*
X122943668Y-106680261D01*
X122753191Y-106680261D01*
X123515096Y-105680261D02*
X124134144Y-105680261D01*
X123800810Y-106061213D01*
X123943668Y-106061213D01*
X124038906Y-106108832D01*
X124086525Y-106156451D01*
X124134144Y-106251690D01*
X124134144Y-106489785D01*
X124086525Y-106585023D01*
X124038906Y-106632642D01*
X123943668Y-106680261D01*
X123657953Y-106680261D01*
X123562715Y-106632642D01*
X123515096Y-106585023D01*
X106541582Y-94339659D02*
X106446344Y-94292040D01*
X106351106Y-94196802D01*
X106208249Y-94053945D01*
X106113010Y-94006326D01*
X106017772Y-94006326D01*
X106065391Y-94244421D02*
X105970153Y-94196802D01*
X105874915Y-94101564D01*
X105827296Y-93911088D01*
X105827296Y-93577754D01*
X105874915Y-93387278D01*
X105970153Y-93292040D01*
X106065391Y-93244421D01*
X106255868Y-93244421D01*
X106351106Y-93292040D01*
X106446344Y-93387278D01*
X106493963Y-93577754D01*
X106493963Y-93911088D01*
X106446344Y-94101564D01*
X106351106Y-94196802D01*
X106255868Y-94244421D01*
X106065391Y-94244421D01*
X107351106Y-93577754D02*
X107351106Y-94244421D01*
X107113010Y-93196802D02*
X106874915Y-93911088D01*
X107493963Y-93911088D01*
X91908334Y-91892381D02*
X91575000Y-91416190D01*
X91336905Y-91892381D02*
X91336905Y-90892381D01*
X91717858Y-90892381D01*
X91813096Y-90940000D01*
X91860715Y-90987619D01*
X91908334Y-91082857D01*
X91908334Y-91225714D01*
X91860715Y-91320952D01*
X91813096Y-91368571D01*
X91717858Y-91416190D01*
X91336905Y-91416190D01*
X92860715Y-91892381D02*
X92289286Y-91892381D01*
X92575000Y-91892381D02*
X92575000Y-90892381D01*
X92479762Y-91035238D01*
X92384524Y-91130476D01*
X92289286Y-91178095D01*
X91908334Y-95067381D02*
X91575000Y-94591190D01*
X91336905Y-95067381D02*
X91336905Y-94067381D01*
X91717858Y-94067381D01*
X91813096Y-94115000D01*
X91860715Y-94162619D01*
X91908334Y-94257857D01*
X91908334Y-94400714D01*
X91860715Y-94495952D01*
X91813096Y-94543571D01*
X91717858Y-94591190D01*
X91336905Y-94591190D01*
X92289286Y-94162619D02*
X92336905Y-94115000D01*
X92432143Y-94067381D01*
X92670239Y-94067381D01*
X92765477Y-94115000D01*
X92813096Y-94162619D01*
X92860715Y-94257857D01*
X92860715Y-94353095D01*
X92813096Y-94495952D01*
X92241667Y-95067381D01*
X92860715Y-95067381D01*
X91908334Y-98242381D02*
X91575000Y-97766190D01*
X91336905Y-98242381D02*
X91336905Y-97242381D01*
X91717858Y-97242381D01*
X91813096Y-97290000D01*
X91860715Y-97337619D01*
X91908334Y-97432857D01*
X91908334Y-97575714D01*
X91860715Y-97670952D01*
X91813096Y-97718571D01*
X91717858Y-97766190D01*
X91336905Y-97766190D01*
X92241667Y-97242381D02*
X92860715Y-97242381D01*
X92527381Y-97623333D01*
X92670239Y-97623333D01*
X92765477Y-97670952D01*
X92813096Y-97718571D01*
X92860715Y-97813810D01*
X92860715Y-98051905D01*
X92813096Y-98147143D01*
X92765477Y-98194762D01*
X92670239Y-98242381D01*
X92384524Y-98242381D01*
X92289286Y-98194762D01*
X92241667Y-98147143D01*
X82383334Y-107132381D02*
X82050000Y-106656190D01*
X81811905Y-107132381D02*
X81811905Y-106132381D01*
X82192858Y-106132381D01*
X82288096Y-106180000D01*
X82335715Y-106227619D01*
X82383334Y-106322857D01*
X82383334Y-106465714D01*
X82335715Y-106560952D01*
X82288096Y-106608571D01*
X82192858Y-106656190D01*
X81811905Y-106656190D01*
X83240477Y-106465714D02*
X83240477Y-107132381D01*
X83002381Y-106084762D02*
X82764286Y-106799048D01*
X83383334Y-106799048D01*
X121118334Y-89352381D02*
X120785000Y-88876190D01*
X120546905Y-89352381D02*
X120546905Y-88352381D01*
X120927858Y-88352381D01*
X121023096Y-88400000D01*
X121070715Y-88447619D01*
X121118334Y-88542857D01*
X121118334Y-88685714D01*
X121070715Y-88780952D01*
X121023096Y-88828571D01*
X120927858Y-88876190D01*
X120546905Y-88876190D01*
X122023096Y-88352381D02*
X121546905Y-88352381D01*
X121499286Y-88828571D01*
X121546905Y-88780952D01*
X121642143Y-88733333D01*
X121880239Y-88733333D01*
X121975477Y-88780952D01*
X122023096Y-88828571D01*
X122070715Y-88923810D01*
X122070715Y-89161905D01*
X122023096Y-89257143D01*
X121975477Y-89304762D01*
X121880239Y-89352381D01*
X121642143Y-89352381D01*
X121546905Y-89304762D01*
X121499286Y-89257143D01*
X95588794Y-94386661D02*
X95255460Y-93910470D01*
X95017365Y-94386661D02*
X95017365Y-93386661D01*
X95398318Y-93386661D01*
X95493556Y-93434280D01*
X95541175Y-93481899D01*
X95588794Y-93577137D01*
X95588794Y-93719994D01*
X95541175Y-93815232D01*
X95493556Y-93862851D01*
X95398318Y-93910470D01*
X95017365Y-93910470D01*
X96445937Y-93386661D02*
X96255460Y-93386661D01*
X96160222Y-93434280D01*
X96112603Y-93481899D01*
X96017365Y-93624756D01*
X95969746Y-93815232D01*
X95969746Y-94196185D01*
X96017365Y-94291423D01*
X96064984Y-94339042D01*
X96160222Y-94386661D01*
X96350699Y-94386661D01*
X96445937Y-94339042D01*
X96493556Y-94291423D01*
X96541175Y-94196185D01*
X96541175Y-93958090D01*
X96493556Y-93862851D01*
X96445937Y-93815232D01*
X96350699Y-93767613D01*
X96160222Y-93767613D01*
X96064984Y-93815232D01*
X96017365Y-93862851D01*
X95969746Y-93958090D01*
X112228334Y-103322381D02*
X111895000Y-102846190D01*
X111656905Y-103322381D02*
X111656905Y-102322381D01*
X112037858Y-102322381D01*
X112133096Y-102370000D01*
X112180715Y-102417619D01*
X112228334Y-102512857D01*
X112228334Y-102655714D01*
X112180715Y-102750952D01*
X112133096Y-102798571D01*
X112037858Y-102846190D01*
X111656905Y-102846190D01*
X112561667Y-102322381D02*
X113228334Y-102322381D01*
X112799762Y-103322381D01*
X112228334Y-106497381D02*
X111895000Y-106021190D01*
X111656905Y-106497381D02*
X111656905Y-105497381D01*
X112037858Y-105497381D01*
X112133096Y-105545000D01*
X112180715Y-105592619D01*
X112228334Y-105687857D01*
X112228334Y-105830714D01*
X112180715Y-105925952D01*
X112133096Y-105973571D01*
X112037858Y-106021190D01*
X111656905Y-106021190D01*
X112799762Y-105925952D02*
X112704524Y-105878333D01*
X112656905Y-105830714D01*
X112609286Y-105735476D01*
X112609286Y-105687857D01*
X112656905Y-105592619D01*
X112704524Y-105545000D01*
X112799762Y-105497381D01*
X112990239Y-105497381D01*
X113085477Y-105545000D01*
X113133096Y-105592619D01*
X113180715Y-105687857D01*
X113180715Y-105735476D01*
X113133096Y-105830714D01*
X113085477Y-105878333D01*
X112990239Y-105925952D01*
X112799762Y-105925952D01*
X112704524Y-105973571D01*
X112656905Y-106021190D01*
X112609286Y-106116429D01*
X112609286Y-106306905D01*
X112656905Y-106402143D01*
X112704524Y-106449762D01*
X112799762Y-106497381D01*
X112990239Y-106497381D01*
X113085477Y-106449762D01*
X113133096Y-106402143D01*
X113180715Y-106306905D01*
X113180715Y-106116429D01*
X113133096Y-106021190D01*
X113085477Y-105973571D01*
X112990239Y-105925952D01*
X125563334Y-105227381D02*
X125230000Y-104751190D01*
X124991905Y-105227381D02*
X124991905Y-104227381D01*
X125372858Y-104227381D01*
X125468096Y-104275000D01*
X125515715Y-104322619D01*
X125563334Y-104417857D01*
X125563334Y-104560714D01*
X125515715Y-104655952D01*
X125468096Y-104703571D01*
X125372858Y-104751190D01*
X124991905Y-104751190D01*
X126039524Y-105227381D02*
X126230000Y-105227381D01*
X126325239Y-105179762D01*
X126372858Y-105132143D01*
X126468096Y-104989286D01*
X126515715Y-104798810D01*
X126515715Y-104417857D01*
X126468096Y-104322619D01*
X126420477Y-104275000D01*
X126325239Y-104227381D01*
X126134762Y-104227381D01*
X126039524Y-104275000D01*
X125991905Y-104322619D01*
X125944286Y-104417857D01*
X125944286Y-104655952D01*
X125991905Y-104751190D01*
X126039524Y-104798810D01*
X126134762Y-104846429D01*
X126325239Y-104846429D01*
X126420477Y-104798810D01*
X126468096Y-104751190D01*
X126515715Y-104655952D01*
X119832381Y-92717857D02*
X119356190Y-93051191D01*
X119832381Y-93289286D02*
X118832381Y-93289286D01*
X118832381Y-92908333D01*
X118880000Y-92813095D01*
X118927619Y-92765476D01*
X119022857Y-92717857D01*
X119165714Y-92717857D01*
X119260952Y-92765476D01*
X119308571Y-92813095D01*
X119356190Y-92908333D01*
X119356190Y-93289286D01*
X119832381Y-91765476D02*
X119832381Y-92336905D01*
X119832381Y-92051191D02*
X118832381Y-92051191D01*
X118975238Y-92146429D01*
X119070476Y-92241667D01*
X119118095Y-92336905D01*
X118832381Y-91146429D02*
X118832381Y-91051190D01*
X118880000Y-90955952D01*
X118927619Y-90908333D01*
X119022857Y-90860714D01*
X119213333Y-90813095D01*
X119451429Y-90813095D01*
X119641905Y-90860714D01*
X119737143Y-90908333D01*
X119784762Y-90955952D01*
X119832381Y-91051190D01*
X119832381Y-91146429D01*
X119784762Y-91241667D01*
X119737143Y-91289286D01*
X119641905Y-91336905D01*
X119451429Y-91384524D01*
X119213333Y-91384524D01*
X119022857Y-91336905D01*
X118927619Y-91289286D01*
X118880000Y-91241667D01*
X118832381Y-91146429D01*
M02*
