G04 #@! TF.FileFunction,Soldermask,Top*
%FSLAX46Y46*%
G04 Gerber Fmt 4.6, Leading zero omitted, Abs format (unit mm)*
G04 Created by KiCad (PCBNEW 4.0.5) date 06/07/17 16:03:37*
%MOMM*%
%LPD*%
G01*
G04 APERTURE LIST*
%ADD10C,0.100000*%
%ADD11C,2.200000*%
%ADD12R,2.400000X2.400000*%
%ADD13O,2.400000X2.400000*%
%ADD14C,10.560000*%
%ADD15C,1.400000*%
%ADD16R,1.400000X1.400000*%
%ADD17O,1.600000X2.000000*%
%ADD18O,1.600000X1.600000*%
%ADD19O,2.000000X1.600000*%
%ADD20C,1.800000*%
%ADD21O,1.800000X1.800000*%
G04 APERTURE END LIST*
D10*
D11*
X81280000Y-98345000D03*
X81280000Y-95845000D03*
X81280000Y-93345000D03*
D12*
X81280000Y-87630000D03*
D13*
X96280000Y-87630000D03*
D12*
X95885000Y-80645000D03*
D13*
X80885000Y-80645000D03*
D12*
X85090000Y-102870000D03*
D13*
X100090000Y-102870000D03*
D12*
X97155000Y-97155000D03*
D13*
X112155000Y-97155000D03*
D12*
X99060000Y-80645000D03*
D13*
X114060000Y-80645000D03*
D11*
X118110000Y-80010000D03*
X125610000Y-81410000D03*
D14*
X89535000Y-114300000D03*
X119505000Y-114300000D03*
D15*
X102870000Y-87630000D03*
X101600000Y-88900000D03*
D16*
X101600000Y-86360000D03*
D15*
X125095000Y-92075000D03*
X123825000Y-93345000D03*
D16*
X123825000Y-90805000D03*
D17*
X119380000Y-99695000D03*
D18*
X116840000Y-102235000D03*
X119380000Y-104775000D03*
D19*
X113030000Y-89535000D03*
D18*
X110490000Y-86995000D03*
X107950000Y-89535000D03*
D20*
X85090000Y-92075000D03*
D21*
X90170000Y-92075000D03*
D20*
X85090000Y-95250000D03*
D21*
X90170000Y-95250000D03*
D20*
X90170000Y-98425000D03*
D21*
X85090000Y-98425000D03*
D20*
X84455000Y-107315000D03*
D21*
X89535000Y-107315000D03*
D20*
X125730000Y-86995000D03*
D21*
X120650000Y-86995000D03*
D20*
X95885000Y-92075000D03*
D21*
X100965000Y-92075000D03*
D20*
X110490000Y-103505000D03*
D21*
X105410000Y-103505000D03*
D20*
X105410000Y-106680000D03*
D21*
X110490000Y-106680000D03*
D20*
X125730000Y-102870000D03*
D21*
X125730000Y-97790000D03*
D20*
X117475000Y-92710000D03*
D21*
X117475000Y-87630000D03*
M02*
