G04 #@! TF.FileFunction,Copper,L2,Bot,Signal*
%FSLAX46Y46*%
G04 Gerber Fmt 4.6, Leading zero omitted, Abs format (unit mm)*
G04 Created by KiCad (PCBNEW 4.0.5) date 06/07/17 16:03:37*
%MOMM*%
%LPD*%
G01*
G04 APERTURE LIST*
%ADD10C,0.100000*%
%ADD11C,1.800000*%
%ADD12R,2.000000X2.000000*%
%ADD13O,2.000000X2.000000*%
%ADD14C,10.160000*%
%ADD15C,1.000000*%
%ADD16R,1.000000X1.000000*%
%ADD17O,1.200000X1.600000*%
%ADD18O,1.200000X1.200000*%
%ADD19O,1.600000X1.200000*%
%ADD20C,1.400000*%
%ADD21O,1.400000X1.400000*%
%ADD22C,0.254000*%
G04 APERTURE END LIST*
D10*
D11*
X81280000Y-98345000D03*
X81280000Y-95845000D03*
X81280000Y-93345000D03*
D12*
X81280000Y-87630000D03*
D13*
X96280000Y-87630000D03*
D12*
X95885000Y-80645000D03*
D13*
X80885000Y-80645000D03*
D12*
X85090000Y-102870000D03*
D13*
X100090000Y-102870000D03*
D12*
X97155000Y-97155000D03*
D13*
X112155000Y-97155000D03*
D12*
X99060000Y-80645000D03*
D13*
X114060000Y-80645000D03*
D11*
X118110000Y-80010000D03*
X125610000Y-81410000D03*
D14*
X89535000Y-114300000D03*
X119505000Y-114300000D03*
D15*
X102870000Y-87630000D03*
X101600000Y-88900000D03*
D16*
X101600000Y-86360000D03*
D15*
X125095000Y-92075000D03*
X123825000Y-93345000D03*
D16*
X123825000Y-90805000D03*
D17*
X119380000Y-99695000D03*
D18*
X116840000Y-102235000D03*
X119380000Y-104775000D03*
D19*
X113030000Y-89535000D03*
D18*
X110490000Y-86995000D03*
X107950000Y-89535000D03*
D20*
X85090000Y-92075000D03*
D21*
X90170000Y-92075000D03*
D20*
X85090000Y-95250000D03*
D21*
X90170000Y-95250000D03*
D20*
X90170000Y-98425000D03*
D21*
X85090000Y-98425000D03*
D20*
X84455000Y-107315000D03*
D21*
X89535000Y-107315000D03*
D20*
X125730000Y-86995000D03*
D21*
X120650000Y-86995000D03*
D20*
X95885000Y-92075000D03*
D21*
X100965000Y-92075000D03*
D20*
X110490000Y-103505000D03*
D21*
X105410000Y-103505000D03*
D20*
X105410000Y-106680000D03*
D21*
X110490000Y-106680000D03*
D20*
X125730000Y-102870000D03*
D21*
X125730000Y-97790000D03*
D20*
X117475000Y-92710000D03*
D21*
X117475000Y-87630000D03*
D22*
G36*
X127560000Y-113539833D02*
X126536714Y-116351876D01*
X124526048Y-118546427D01*
X121828615Y-119804481D01*
X121036493Y-119839119D01*
X122657142Y-119200765D01*
X122826444Y-119087641D01*
X123422223Y-118396828D01*
X119505000Y-114479605D01*
X115587777Y-118396828D01*
X116183556Y-119087641D01*
X118143743Y-119940000D01*
X90850704Y-119940000D01*
X92768058Y-119147766D01*
X94377116Y-117541514D01*
X95249005Y-115441771D01*
X95249096Y-115336758D01*
X113771011Y-115336758D01*
X114604235Y-117452142D01*
X114717359Y-117621444D01*
X115408172Y-118217223D01*
X119325395Y-114300000D01*
X119684605Y-114300000D01*
X123601828Y-118217223D01*
X124292641Y-117621444D01*
X125199265Y-115536463D01*
X125238989Y-113263242D01*
X124405765Y-111147858D01*
X124292641Y-110978556D01*
X123601828Y-110382777D01*
X119684605Y-114300000D01*
X119325395Y-114300000D01*
X115408172Y-110382777D01*
X114717359Y-110978556D01*
X113810735Y-113063537D01*
X113771011Y-115336758D01*
X95249096Y-115336758D01*
X95250989Y-113168204D01*
X94382766Y-111066942D01*
X93520503Y-110203172D01*
X115587777Y-110203172D01*
X119505000Y-114120395D01*
X123422223Y-110203172D01*
X122826444Y-109512359D01*
X120741463Y-108605735D01*
X118468242Y-108566011D01*
X116352858Y-109399235D01*
X116183556Y-109512359D01*
X115587777Y-110203172D01*
X93520503Y-110203172D01*
X92776514Y-109457884D01*
X90676771Y-108585995D01*
X89886395Y-108585305D01*
X90072036Y-108548379D01*
X90505142Y-108258988D01*
X90794533Y-107825882D01*
X90896154Y-107315000D01*
X90822434Y-106944383D01*
X104074769Y-106944383D01*
X104277582Y-107435229D01*
X104652796Y-107811098D01*
X105143287Y-108014768D01*
X105674383Y-108015231D01*
X106165229Y-107812418D01*
X106541098Y-107437204D01*
X106744768Y-106946713D01*
X106745000Y-106680000D01*
X109128846Y-106680000D01*
X109230467Y-107190882D01*
X109519858Y-107623988D01*
X109952964Y-107913379D01*
X110463846Y-108015000D01*
X110516154Y-108015000D01*
X111027036Y-107913379D01*
X111460142Y-107623988D01*
X111749533Y-107190882D01*
X111851154Y-106680000D01*
X111749533Y-106169118D01*
X111460142Y-105736012D01*
X111027036Y-105446621D01*
X110516154Y-105345000D01*
X110463846Y-105345000D01*
X109952964Y-105446621D01*
X109519858Y-105736012D01*
X109230467Y-106169118D01*
X109128846Y-106680000D01*
X106745000Y-106680000D01*
X106745231Y-106415617D01*
X106542418Y-105924771D01*
X106167204Y-105548902D01*
X105676713Y-105345232D01*
X105145617Y-105344769D01*
X104654771Y-105547582D01*
X104278902Y-105922796D01*
X104075232Y-106413287D01*
X104074769Y-106944383D01*
X90822434Y-106944383D01*
X90794533Y-106804118D01*
X90505142Y-106371012D01*
X90072036Y-106081621D01*
X89561154Y-105980000D01*
X89508846Y-105980000D01*
X88997964Y-106081621D01*
X88564858Y-106371012D01*
X88275467Y-106804118D01*
X88173846Y-107315000D01*
X88275467Y-107825882D01*
X88564858Y-108258988D01*
X88997964Y-108548379D01*
X89180508Y-108584689D01*
X88403204Y-108584011D01*
X86301942Y-109452234D01*
X84692884Y-111058486D01*
X83820995Y-113158229D01*
X83819011Y-115431796D01*
X84687234Y-117533058D01*
X86293486Y-119142116D01*
X88215005Y-119940000D01*
X85225149Y-119940000D01*
X82905829Y-119023830D01*
X81118027Y-117294058D01*
X80128267Y-115011797D01*
X80085000Y-112389168D01*
X80085000Y-107579383D01*
X83119769Y-107579383D01*
X83322582Y-108070229D01*
X83697796Y-108446098D01*
X84188287Y-108649768D01*
X84719383Y-108650231D01*
X85210229Y-108447418D01*
X85586098Y-108072204D01*
X85789768Y-107581713D01*
X85790231Y-107050617D01*
X85587418Y-106559771D01*
X85212204Y-106183902D01*
X84721713Y-105980232D01*
X84190617Y-105979769D01*
X83699771Y-106182582D01*
X83323902Y-106557796D01*
X83120232Y-107048287D01*
X83119769Y-107579383D01*
X80085000Y-107579383D01*
X80085000Y-101870000D01*
X83442560Y-101870000D01*
X83442560Y-103870000D01*
X83486838Y-104105317D01*
X83625910Y-104321441D01*
X83838110Y-104466431D01*
X84090000Y-104517440D01*
X86090000Y-104517440D01*
X86325317Y-104473162D01*
X86541441Y-104334090D01*
X86686431Y-104121890D01*
X86737440Y-103870000D01*
X86737440Y-102870000D01*
X98422968Y-102870000D01*
X98547425Y-103495687D01*
X98901848Y-104026120D01*
X99432281Y-104380543D01*
X100057968Y-104505000D01*
X100122032Y-104505000D01*
X100747719Y-104380543D01*
X101278152Y-104026120D01*
X101626352Y-103505000D01*
X104048846Y-103505000D01*
X104150467Y-104015882D01*
X104439858Y-104448988D01*
X104872964Y-104738379D01*
X105383846Y-104840000D01*
X105436154Y-104840000D01*
X105947036Y-104738379D01*
X106380142Y-104448988D01*
X106669533Y-104015882D01*
X106718564Y-103769383D01*
X109154769Y-103769383D01*
X109357582Y-104260229D01*
X109732796Y-104636098D01*
X110223287Y-104839768D01*
X110754383Y-104840231D01*
X110970810Y-104750805D01*
X118145000Y-104750805D01*
X118145000Y-104799195D01*
X118239009Y-105271809D01*
X118506723Y-105672472D01*
X118907386Y-105940186D01*
X119380000Y-106034195D01*
X119852614Y-105940186D01*
X120253277Y-105672472D01*
X120520991Y-105271809D01*
X120615000Y-104799195D01*
X120615000Y-104750805D01*
X120520991Y-104278191D01*
X120253277Y-103877528D01*
X119852614Y-103609814D01*
X119380000Y-103515805D01*
X118907386Y-103609814D01*
X118506723Y-103877528D01*
X118239009Y-104278191D01*
X118145000Y-104750805D01*
X110970810Y-104750805D01*
X111245229Y-104637418D01*
X111621098Y-104262204D01*
X111824768Y-103771713D01*
X111825231Y-103240617D01*
X111622418Y-102749771D01*
X111247204Y-102373902D01*
X110854424Y-102210805D01*
X115605000Y-102210805D01*
X115605000Y-102259195D01*
X115699009Y-102731809D01*
X115966723Y-103132472D01*
X116367386Y-103400186D01*
X116840000Y-103494195D01*
X117312614Y-103400186D01*
X117710416Y-103134383D01*
X124394769Y-103134383D01*
X124597582Y-103625229D01*
X124972796Y-104001098D01*
X125463287Y-104204768D01*
X125994383Y-104205231D01*
X126485229Y-104002418D01*
X126861098Y-103627204D01*
X127064768Y-103136713D01*
X127065231Y-102605617D01*
X126862418Y-102114771D01*
X126487204Y-101738902D01*
X125996713Y-101535232D01*
X125465617Y-101534769D01*
X124974771Y-101737582D01*
X124598902Y-102112796D01*
X124395232Y-102603287D01*
X124394769Y-103134383D01*
X117710416Y-103134383D01*
X117713277Y-103132472D01*
X117980991Y-102731809D01*
X118075000Y-102259195D01*
X118075000Y-102210805D01*
X117980991Y-101738191D01*
X117713277Y-101337528D01*
X117312614Y-101069814D01*
X116840000Y-100975805D01*
X116367386Y-101069814D01*
X115966723Y-101337528D01*
X115699009Y-101738191D01*
X115605000Y-102210805D01*
X110854424Y-102210805D01*
X110756713Y-102170232D01*
X110225617Y-102169769D01*
X109734771Y-102372582D01*
X109358902Y-102747796D01*
X109155232Y-103238287D01*
X109154769Y-103769383D01*
X106718564Y-103769383D01*
X106771154Y-103505000D01*
X106669533Y-102994118D01*
X106380142Y-102561012D01*
X105947036Y-102271621D01*
X105436154Y-102170000D01*
X105383846Y-102170000D01*
X104872964Y-102271621D01*
X104439858Y-102561012D01*
X104150467Y-102994118D01*
X104048846Y-103505000D01*
X101626352Y-103505000D01*
X101632575Y-103495687D01*
X101757032Y-102870000D01*
X101632575Y-102244313D01*
X101278152Y-101713880D01*
X100747719Y-101359457D01*
X100122032Y-101235000D01*
X100057968Y-101235000D01*
X99432281Y-101359457D01*
X98901848Y-101713880D01*
X98547425Y-102244313D01*
X98422968Y-102870000D01*
X86737440Y-102870000D01*
X86737440Y-101870000D01*
X86693162Y-101634683D01*
X86554090Y-101418559D01*
X86341890Y-101273569D01*
X86090000Y-101222560D01*
X84090000Y-101222560D01*
X83854683Y-101266838D01*
X83638559Y-101405910D01*
X83493569Y-101618110D01*
X83442560Y-101870000D01*
X80085000Y-101870000D01*
X80085000Y-99320626D01*
X80409357Y-99645551D01*
X80973330Y-99879733D01*
X81583991Y-99880265D01*
X82148371Y-99647068D01*
X82580551Y-99215643D01*
X82770444Y-98758329D01*
X83797284Y-98758329D01*
X83940203Y-99103396D01*
X84287337Y-99491764D01*
X84756669Y-99717727D01*
X84963000Y-99595206D01*
X84963000Y-98552000D01*
X85217000Y-98552000D01*
X85217000Y-99595206D01*
X85423331Y-99717727D01*
X85892663Y-99491764D01*
X86239797Y-99103396D01*
X86382716Y-98758329D01*
X86341501Y-98689383D01*
X88834769Y-98689383D01*
X89037582Y-99180229D01*
X89412796Y-99556098D01*
X89903287Y-99759768D01*
X90434383Y-99760231D01*
X90925229Y-99557418D01*
X91015918Y-99466887D01*
X118145000Y-99466887D01*
X118145000Y-99923113D01*
X118239009Y-100395727D01*
X118506723Y-100796390D01*
X118907386Y-101064104D01*
X119380000Y-101158113D01*
X119852614Y-101064104D01*
X120253277Y-100796390D01*
X120520991Y-100395727D01*
X120615000Y-99923113D01*
X120615000Y-99466887D01*
X120520991Y-98994273D01*
X120253277Y-98593610D01*
X119852614Y-98325896D01*
X119380000Y-98231887D01*
X118907386Y-98325896D01*
X118506723Y-98593610D01*
X118239009Y-98994273D01*
X118145000Y-99466887D01*
X91015918Y-99466887D01*
X91301098Y-99182204D01*
X91504768Y-98691713D01*
X91505231Y-98160617D01*
X91302418Y-97669771D01*
X90927204Y-97293902D01*
X90436713Y-97090232D01*
X89905617Y-97089769D01*
X89414771Y-97292582D01*
X89038902Y-97667796D01*
X88835232Y-98158287D01*
X88834769Y-98689383D01*
X86341501Y-98689383D01*
X86259374Y-98552000D01*
X85217000Y-98552000D01*
X84963000Y-98552000D01*
X83920626Y-98552000D01*
X83797284Y-98758329D01*
X82770444Y-98758329D01*
X82814733Y-98651670D01*
X82815220Y-98091671D01*
X83797284Y-98091671D01*
X83920626Y-98298000D01*
X84963000Y-98298000D01*
X84963000Y-97254794D01*
X85217000Y-97254794D01*
X85217000Y-98298000D01*
X86259374Y-98298000D01*
X86382716Y-98091671D01*
X86239797Y-97746604D01*
X85892663Y-97358236D01*
X85423331Y-97132273D01*
X85217000Y-97254794D01*
X84963000Y-97254794D01*
X84756669Y-97132273D01*
X84287337Y-97358236D01*
X83940203Y-97746604D01*
X83797284Y-98091671D01*
X82815220Y-98091671D01*
X82815265Y-98041009D01*
X82582068Y-97476629D01*
X82200818Y-97094712D01*
X82580551Y-96715643D01*
X82814733Y-96151670D01*
X82815265Y-95541009D01*
X82804264Y-95514383D01*
X83754769Y-95514383D01*
X83957582Y-96005229D01*
X84332796Y-96381098D01*
X84823287Y-96584768D01*
X85354383Y-96585231D01*
X85845229Y-96382418D01*
X86221098Y-96007204D01*
X86424768Y-95516713D01*
X86425000Y-95250000D01*
X88808846Y-95250000D01*
X88910467Y-95760882D01*
X89199858Y-96193988D01*
X89632964Y-96483379D01*
X90143846Y-96585000D01*
X90196154Y-96585000D01*
X90707036Y-96483379D01*
X91140142Y-96193988D01*
X91166192Y-96155000D01*
X95507560Y-96155000D01*
X95507560Y-98155000D01*
X95551838Y-98390317D01*
X95690910Y-98606441D01*
X95903110Y-98751431D01*
X96155000Y-98802440D01*
X98155000Y-98802440D01*
X98390317Y-98758162D01*
X98606441Y-98619090D01*
X98751431Y-98406890D01*
X98802440Y-98155000D01*
X98802440Y-97155000D01*
X110487968Y-97155000D01*
X110612425Y-97780687D01*
X110966848Y-98311120D01*
X111497281Y-98665543D01*
X112122968Y-98790000D01*
X112187032Y-98790000D01*
X112812719Y-98665543D01*
X113343152Y-98311120D01*
X113697575Y-97780687D01*
X113700924Y-97763846D01*
X124395000Y-97763846D01*
X124395000Y-97816154D01*
X124496621Y-98327036D01*
X124786012Y-98760142D01*
X125219118Y-99049533D01*
X125730000Y-99151154D01*
X126240882Y-99049533D01*
X126673988Y-98760142D01*
X126963379Y-98327036D01*
X127065000Y-97816154D01*
X127065000Y-97763846D01*
X126963379Y-97252964D01*
X126673988Y-96819858D01*
X126240882Y-96530467D01*
X125730000Y-96428846D01*
X125219118Y-96530467D01*
X124786012Y-96819858D01*
X124496621Y-97252964D01*
X124395000Y-97763846D01*
X113700924Y-97763846D01*
X113822032Y-97155000D01*
X113697575Y-96529313D01*
X113343152Y-95998880D01*
X112812719Y-95644457D01*
X112187032Y-95520000D01*
X112122968Y-95520000D01*
X111497281Y-95644457D01*
X110966848Y-95998880D01*
X110612425Y-96529313D01*
X110487968Y-97155000D01*
X98802440Y-97155000D01*
X98802440Y-96155000D01*
X98758162Y-95919683D01*
X98619090Y-95703559D01*
X98406890Y-95558569D01*
X98155000Y-95507560D01*
X96155000Y-95507560D01*
X95919683Y-95551838D01*
X95703559Y-95690910D01*
X95558569Y-95903110D01*
X95507560Y-96155000D01*
X91166192Y-96155000D01*
X91429533Y-95760882D01*
X91531154Y-95250000D01*
X91429533Y-94739118D01*
X91140142Y-94306012D01*
X90707036Y-94016621D01*
X90196154Y-93915000D01*
X90143846Y-93915000D01*
X89632964Y-94016621D01*
X89199858Y-94306012D01*
X88910467Y-94739118D01*
X88808846Y-95250000D01*
X86425000Y-95250000D01*
X86425231Y-94985617D01*
X86222418Y-94494771D01*
X85847204Y-94118902D01*
X85356713Y-93915232D01*
X84825617Y-93914769D01*
X84334771Y-94117582D01*
X83958902Y-94492796D01*
X83755232Y-94983287D01*
X83754769Y-95514383D01*
X82804264Y-95514383D01*
X82582068Y-94976629D01*
X82200818Y-94594712D01*
X82580551Y-94215643D01*
X82814733Y-93651670D01*
X82815265Y-93041009D01*
X82582068Y-92476629D01*
X82445062Y-92339383D01*
X83754769Y-92339383D01*
X83957582Y-92830229D01*
X84332796Y-93206098D01*
X84823287Y-93409768D01*
X85354383Y-93410231D01*
X85845229Y-93207418D01*
X86221098Y-92832204D01*
X86424768Y-92341713D01*
X86425000Y-92075000D01*
X88808846Y-92075000D01*
X88910467Y-92585882D01*
X89199858Y-93018988D01*
X89632964Y-93308379D01*
X90143846Y-93410000D01*
X90196154Y-93410000D01*
X90707036Y-93308379D01*
X91140142Y-93018988D01*
X91429533Y-92585882D01*
X91478564Y-92339383D01*
X94549769Y-92339383D01*
X94752582Y-92830229D01*
X95127796Y-93206098D01*
X95618287Y-93409768D01*
X96149383Y-93410231D01*
X96640229Y-93207418D01*
X97016098Y-92832204D01*
X97219768Y-92341713D01*
X97220000Y-92075000D01*
X99603846Y-92075000D01*
X99705467Y-92585882D01*
X99994858Y-93018988D01*
X100427964Y-93308379D01*
X100938846Y-93410000D01*
X100991154Y-93410000D01*
X101502036Y-93308379D01*
X101935142Y-93018988D01*
X101964945Y-92974383D01*
X116139769Y-92974383D01*
X116342582Y-93465229D01*
X116717796Y-93841098D01*
X117208287Y-94044768D01*
X117739383Y-94045231D01*
X118230229Y-93842418D01*
X118606098Y-93467204D01*
X118809768Y-92976713D01*
X118810231Y-92445617D01*
X118607418Y-91954771D01*
X118232204Y-91578902D01*
X117741713Y-91375232D01*
X117210617Y-91374769D01*
X116719771Y-91577582D01*
X116343902Y-91952796D01*
X116140232Y-92443287D01*
X116139769Y-92974383D01*
X101964945Y-92974383D01*
X102224533Y-92585882D01*
X102326154Y-92075000D01*
X102224533Y-91564118D01*
X101935142Y-91131012D01*
X101502036Y-90841621D01*
X100991154Y-90740000D01*
X100938846Y-90740000D01*
X100427964Y-90841621D01*
X99994858Y-91131012D01*
X99705467Y-91564118D01*
X99603846Y-92075000D01*
X97220000Y-92075000D01*
X97220231Y-91810617D01*
X97017418Y-91319771D01*
X96642204Y-90943902D01*
X96151713Y-90740232D01*
X95620617Y-90739769D01*
X95129771Y-90942582D01*
X94753902Y-91317796D01*
X94550232Y-91808287D01*
X94549769Y-92339383D01*
X91478564Y-92339383D01*
X91531154Y-92075000D01*
X91429533Y-91564118D01*
X91140142Y-91131012D01*
X90707036Y-90841621D01*
X90196154Y-90740000D01*
X90143846Y-90740000D01*
X89632964Y-90841621D01*
X89199858Y-91131012D01*
X88910467Y-91564118D01*
X88808846Y-92075000D01*
X86425000Y-92075000D01*
X86425231Y-91810617D01*
X86222418Y-91319771D01*
X85847204Y-90943902D01*
X85356713Y-90740232D01*
X84825617Y-90739769D01*
X84334771Y-90942582D01*
X83958902Y-91317796D01*
X83755232Y-91808287D01*
X83754769Y-92339383D01*
X82445062Y-92339383D01*
X82150643Y-92044449D01*
X81586670Y-91810267D01*
X80976009Y-91809735D01*
X80411629Y-92042932D01*
X80085000Y-92368990D01*
X80085000Y-89237952D01*
X80280000Y-89277440D01*
X82280000Y-89277440D01*
X82515317Y-89233162D01*
X82731441Y-89094090D01*
X82876431Y-88881890D01*
X82927440Y-88630000D01*
X82927440Y-88010434D01*
X94689876Y-88010434D01*
X94886598Y-88485385D01*
X95320006Y-88953505D01*
X95899565Y-89220133D01*
X96153000Y-89101319D01*
X96153000Y-87757000D01*
X96407000Y-87757000D01*
X96407000Y-89101319D01*
X96660435Y-89220133D01*
X97239994Y-88953505D01*
X97673402Y-88485385D01*
X97870124Y-88010434D01*
X97750777Y-87757000D01*
X96407000Y-87757000D01*
X96153000Y-87757000D01*
X94809223Y-87757000D01*
X94689876Y-88010434D01*
X82927440Y-88010434D01*
X82927440Y-87249566D01*
X94689876Y-87249566D01*
X94809223Y-87503000D01*
X96153000Y-87503000D01*
X96153000Y-86158681D01*
X96407000Y-86158681D01*
X96407000Y-87503000D01*
X97750777Y-87503000D01*
X97870124Y-87249566D01*
X97673402Y-86774615D01*
X97239994Y-86306495D01*
X96660435Y-86039867D01*
X96407000Y-86158681D01*
X96153000Y-86158681D01*
X95899565Y-86039867D01*
X95320006Y-86306495D01*
X94886598Y-86774615D01*
X94689876Y-87249566D01*
X82927440Y-87249566D01*
X82927440Y-86630000D01*
X82883162Y-86394683D01*
X82744090Y-86178559D01*
X82531890Y-86033569D01*
X82280000Y-85982560D01*
X80280000Y-85982560D01*
X80085000Y-86019252D01*
X80085000Y-85860000D01*
X100452560Y-85860000D01*
X100452560Y-86860000D01*
X100496838Y-87095317D01*
X100635910Y-87311441D01*
X100848110Y-87456431D01*
X101100000Y-87507440D01*
X101735106Y-87507440D01*
X101734881Y-87765117D01*
X101375225Y-87764803D01*
X100957914Y-87937233D01*
X100638355Y-88256235D01*
X100465197Y-88673244D01*
X100464803Y-89124775D01*
X100637233Y-89542086D01*
X100956235Y-89861645D01*
X101373244Y-90034803D01*
X101824775Y-90035197D01*
X102242086Y-89862767D01*
X102561645Y-89543765D01*
X102565284Y-89535000D01*
X106690805Y-89535000D01*
X106784814Y-90007614D01*
X107052528Y-90408277D01*
X107453191Y-90675991D01*
X107925805Y-90770000D01*
X107974195Y-90770000D01*
X108446809Y-90675991D01*
X108847472Y-90408277D01*
X109115186Y-90007614D01*
X109209195Y-89535000D01*
X111566887Y-89535000D01*
X111660896Y-90007614D01*
X111928610Y-90408277D01*
X112329273Y-90675991D01*
X112801887Y-90770000D01*
X113258113Y-90770000D01*
X113730727Y-90675991D01*
X114131390Y-90408277D01*
X114200397Y-90305000D01*
X122677560Y-90305000D01*
X122677560Y-91305000D01*
X122721838Y-91540317D01*
X122860910Y-91756441D01*
X123073110Y-91901431D01*
X123325000Y-91952440D01*
X123960106Y-91952440D01*
X123959881Y-92210117D01*
X123600225Y-92209803D01*
X123182914Y-92382233D01*
X122863355Y-92701235D01*
X122690197Y-93118244D01*
X122689803Y-93569775D01*
X122862233Y-93987086D01*
X123181235Y-94306645D01*
X123598244Y-94479803D01*
X124049775Y-94480197D01*
X124467086Y-94307767D01*
X124786645Y-93988765D01*
X124959803Y-93571756D01*
X124960119Y-93209883D01*
X125319775Y-93210197D01*
X125737086Y-93037767D01*
X126056645Y-92718765D01*
X126229803Y-92301756D01*
X126230197Y-91850225D01*
X126057767Y-91432914D01*
X125738765Y-91113355D01*
X125321756Y-90940197D01*
X124972440Y-90939892D01*
X124972440Y-90305000D01*
X124928162Y-90069683D01*
X124789090Y-89853559D01*
X124576890Y-89708569D01*
X124325000Y-89657560D01*
X123325000Y-89657560D01*
X123089683Y-89701838D01*
X122873559Y-89840910D01*
X122728569Y-90053110D01*
X122677560Y-90305000D01*
X114200397Y-90305000D01*
X114399104Y-90007614D01*
X114493113Y-89535000D01*
X114399104Y-89062386D01*
X114131390Y-88661723D01*
X113730727Y-88394009D01*
X113258113Y-88300000D01*
X112801887Y-88300000D01*
X112329273Y-88394009D01*
X111928610Y-88661723D01*
X111660896Y-89062386D01*
X111566887Y-89535000D01*
X109209195Y-89535000D01*
X109115186Y-89062386D01*
X108847472Y-88661723D01*
X108446809Y-88394009D01*
X107974195Y-88300000D01*
X107925805Y-88300000D01*
X107453191Y-88394009D01*
X107052528Y-88661723D01*
X106784814Y-89062386D01*
X106690805Y-89535000D01*
X102565284Y-89535000D01*
X102734803Y-89126756D01*
X102735119Y-88764883D01*
X103094775Y-88765197D01*
X103512086Y-88592767D01*
X103831645Y-88273765D01*
X104004803Y-87856756D01*
X104005197Y-87405225D01*
X103966929Y-87312609D01*
X109296538Y-87312609D01*
X109421503Y-87614327D01*
X109739844Y-87976080D01*
X110172389Y-88188472D01*
X110363000Y-88064714D01*
X110363000Y-87122000D01*
X110617000Y-87122000D01*
X110617000Y-88064714D01*
X110807611Y-88188472D01*
X111240156Y-87976080D01*
X111558497Y-87614327D01*
X111562838Y-87603846D01*
X116140000Y-87603846D01*
X116140000Y-87656154D01*
X116241621Y-88167036D01*
X116531012Y-88600142D01*
X116964118Y-88889533D01*
X117475000Y-88991154D01*
X117985882Y-88889533D01*
X118418988Y-88600142D01*
X118708379Y-88167036D01*
X118810000Y-87656154D01*
X118810000Y-87603846D01*
X118708379Y-87092964D01*
X118642922Y-86995000D01*
X119288846Y-86995000D01*
X119390467Y-87505882D01*
X119679858Y-87938988D01*
X120112964Y-88228379D01*
X120623846Y-88330000D01*
X120676154Y-88330000D01*
X121187036Y-88228379D01*
X121620142Y-87938988D01*
X121909533Y-87505882D01*
X121958564Y-87259383D01*
X124394769Y-87259383D01*
X124597582Y-87750229D01*
X124972796Y-88126098D01*
X125463287Y-88329768D01*
X125994383Y-88330231D01*
X126485229Y-88127418D01*
X126861098Y-87752204D01*
X127064768Y-87261713D01*
X127065231Y-86730617D01*
X126862418Y-86239771D01*
X126487204Y-85863902D01*
X125996713Y-85660232D01*
X125465617Y-85659769D01*
X124974771Y-85862582D01*
X124598902Y-86237796D01*
X124395232Y-86728287D01*
X124394769Y-87259383D01*
X121958564Y-87259383D01*
X122011154Y-86995000D01*
X121909533Y-86484118D01*
X121620142Y-86051012D01*
X121187036Y-85761621D01*
X120676154Y-85660000D01*
X120623846Y-85660000D01*
X120112964Y-85761621D01*
X119679858Y-86051012D01*
X119390467Y-86484118D01*
X119288846Y-86995000D01*
X118642922Y-86995000D01*
X118418988Y-86659858D01*
X117985882Y-86370467D01*
X117475000Y-86268846D01*
X116964118Y-86370467D01*
X116531012Y-86659858D01*
X116241621Y-87092964D01*
X116140000Y-87603846D01*
X111562838Y-87603846D01*
X111683462Y-87312609D01*
X111558731Y-87122000D01*
X110617000Y-87122000D01*
X110363000Y-87122000D01*
X109421269Y-87122000D01*
X109296538Y-87312609D01*
X103966929Y-87312609D01*
X103832767Y-86987914D01*
X103522786Y-86677391D01*
X109296538Y-86677391D01*
X109421269Y-86868000D01*
X110363000Y-86868000D01*
X110363000Y-85925286D01*
X110617000Y-85925286D01*
X110617000Y-86868000D01*
X111558731Y-86868000D01*
X111683462Y-86677391D01*
X111558497Y-86375673D01*
X111240156Y-86013920D01*
X110807611Y-85801528D01*
X110617000Y-85925286D01*
X110363000Y-85925286D01*
X110172389Y-85801528D01*
X109739844Y-86013920D01*
X109421503Y-86375673D01*
X109296538Y-86677391D01*
X103522786Y-86677391D01*
X103513765Y-86668355D01*
X103096756Y-86495197D01*
X102747440Y-86494892D01*
X102747440Y-85860000D01*
X102703162Y-85624683D01*
X102564090Y-85408559D01*
X102351890Y-85263569D01*
X102100000Y-85212560D01*
X101100000Y-85212560D01*
X100864683Y-85256838D01*
X100648559Y-85395910D01*
X100503569Y-85608110D01*
X100452560Y-85860000D01*
X80085000Y-85860000D01*
X80085000Y-82490159D01*
X124709446Y-82490159D01*
X124795852Y-82746643D01*
X125369336Y-82956458D01*
X125979460Y-82930839D01*
X126424148Y-82746643D01*
X126510554Y-82490159D01*
X125610000Y-81589605D01*
X124709446Y-82490159D01*
X80085000Y-82490159D01*
X80085000Y-82042111D01*
X80504565Y-82235133D01*
X80758000Y-82116319D01*
X80758000Y-80772000D01*
X81012000Y-80772000D01*
X81012000Y-82116319D01*
X81265435Y-82235133D01*
X81844994Y-81968505D01*
X82278402Y-81500385D01*
X82475124Y-81025434D01*
X82355777Y-80772000D01*
X81012000Y-80772000D01*
X80758000Y-80772000D01*
X80738000Y-80772000D01*
X80738000Y-80518000D01*
X80758000Y-80518000D01*
X80758000Y-79173681D01*
X81012000Y-79173681D01*
X81012000Y-80518000D01*
X82355777Y-80518000D01*
X82475124Y-80264566D01*
X82278402Y-79789615D01*
X82144511Y-79645000D01*
X94237560Y-79645000D01*
X94237560Y-81645000D01*
X94281838Y-81880317D01*
X94420910Y-82096441D01*
X94633110Y-82241431D01*
X94885000Y-82292440D01*
X96885000Y-82292440D01*
X97120317Y-82248162D01*
X97336441Y-82109090D01*
X97474258Y-81907388D01*
X97595910Y-82096441D01*
X97808110Y-82241431D01*
X98060000Y-82292440D01*
X100060000Y-82292440D01*
X100295317Y-82248162D01*
X100511441Y-82109090D01*
X100656431Y-81896890D01*
X100707440Y-81645000D01*
X100707440Y-80645000D01*
X112392968Y-80645000D01*
X112517425Y-81270687D01*
X112871848Y-81801120D01*
X113402281Y-82155543D01*
X114027968Y-82280000D01*
X114092032Y-82280000D01*
X114717719Y-82155543D01*
X115248152Y-81801120D01*
X115602575Y-81270687D01*
X115727032Y-80645000D01*
X115661191Y-80313991D01*
X116574735Y-80313991D01*
X116807932Y-80878371D01*
X117239357Y-81310551D01*
X117803330Y-81544733D01*
X118413991Y-81545265D01*
X118978371Y-81312068D01*
X119121352Y-81169336D01*
X124063542Y-81169336D01*
X124089161Y-81779460D01*
X124273357Y-82224148D01*
X124529841Y-82310554D01*
X125430395Y-81410000D01*
X125789605Y-81410000D01*
X126690159Y-82310554D01*
X126946643Y-82224148D01*
X127156458Y-81650664D01*
X127130839Y-81040540D01*
X126946643Y-80595852D01*
X126690159Y-80509446D01*
X125789605Y-81410000D01*
X125430395Y-81410000D01*
X124529841Y-80509446D01*
X124273357Y-80595852D01*
X124063542Y-81169336D01*
X119121352Y-81169336D01*
X119410551Y-80880643D01*
X119639263Y-80329841D01*
X124709446Y-80329841D01*
X125610000Y-81230395D01*
X126510554Y-80329841D01*
X126424148Y-80073357D01*
X125850664Y-79863542D01*
X125240540Y-79889161D01*
X124795852Y-80073357D01*
X124709446Y-80329841D01*
X119639263Y-80329841D01*
X119644733Y-80316670D01*
X119645265Y-79706009D01*
X119412068Y-79141629D01*
X118980643Y-78709449D01*
X118416670Y-78475267D01*
X117806009Y-78474735D01*
X117241629Y-78707932D01*
X116809449Y-79139357D01*
X116575267Y-79703330D01*
X116574735Y-80313991D01*
X115661191Y-80313991D01*
X115602575Y-80019313D01*
X115248152Y-79488880D01*
X114717719Y-79134457D01*
X114092032Y-79010000D01*
X114027968Y-79010000D01*
X113402281Y-79134457D01*
X112871848Y-79488880D01*
X112517425Y-80019313D01*
X112392968Y-80645000D01*
X100707440Y-80645000D01*
X100707440Y-79645000D01*
X100663162Y-79409683D01*
X100524090Y-79193559D01*
X100311890Y-79048569D01*
X100060000Y-78997560D01*
X98060000Y-78997560D01*
X97824683Y-79041838D01*
X97608559Y-79180910D01*
X97470742Y-79382612D01*
X97349090Y-79193559D01*
X97136890Y-79048569D01*
X96885000Y-78997560D01*
X94885000Y-78997560D01*
X94649683Y-79041838D01*
X94433559Y-79180910D01*
X94288569Y-79393110D01*
X94237560Y-79645000D01*
X82144511Y-79645000D01*
X81844994Y-79321495D01*
X81265435Y-79054867D01*
X81012000Y-79173681D01*
X80758000Y-79173681D01*
X80504565Y-79054867D01*
X80085000Y-79247889D01*
X80085000Y-78180000D01*
X127560000Y-78180000D01*
X127560000Y-113539833D01*
X127560000Y-113539833D01*
G37*
X127560000Y-113539833D02*
X126536714Y-116351876D01*
X124526048Y-118546427D01*
X121828615Y-119804481D01*
X121036493Y-119839119D01*
X122657142Y-119200765D01*
X122826444Y-119087641D01*
X123422223Y-118396828D01*
X119505000Y-114479605D01*
X115587777Y-118396828D01*
X116183556Y-119087641D01*
X118143743Y-119940000D01*
X90850704Y-119940000D01*
X92768058Y-119147766D01*
X94377116Y-117541514D01*
X95249005Y-115441771D01*
X95249096Y-115336758D01*
X113771011Y-115336758D01*
X114604235Y-117452142D01*
X114717359Y-117621444D01*
X115408172Y-118217223D01*
X119325395Y-114300000D01*
X119684605Y-114300000D01*
X123601828Y-118217223D01*
X124292641Y-117621444D01*
X125199265Y-115536463D01*
X125238989Y-113263242D01*
X124405765Y-111147858D01*
X124292641Y-110978556D01*
X123601828Y-110382777D01*
X119684605Y-114300000D01*
X119325395Y-114300000D01*
X115408172Y-110382777D01*
X114717359Y-110978556D01*
X113810735Y-113063537D01*
X113771011Y-115336758D01*
X95249096Y-115336758D01*
X95250989Y-113168204D01*
X94382766Y-111066942D01*
X93520503Y-110203172D01*
X115587777Y-110203172D01*
X119505000Y-114120395D01*
X123422223Y-110203172D01*
X122826444Y-109512359D01*
X120741463Y-108605735D01*
X118468242Y-108566011D01*
X116352858Y-109399235D01*
X116183556Y-109512359D01*
X115587777Y-110203172D01*
X93520503Y-110203172D01*
X92776514Y-109457884D01*
X90676771Y-108585995D01*
X89886395Y-108585305D01*
X90072036Y-108548379D01*
X90505142Y-108258988D01*
X90794533Y-107825882D01*
X90896154Y-107315000D01*
X90822434Y-106944383D01*
X104074769Y-106944383D01*
X104277582Y-107435229D01*
X104652796Y-107811098D01*
X105143287Y-108014768D01*
X105674383Y-108015231D01*
X106165229Y-107812418D01*
X106541098Y-107437204D01*
X106744768Y-106946713D01*
X106745000Y-106680000D01*
X109128846Y-106680000D01*
X109230467Y-107190882D01*
X109519858Y-107623988D01*
X109952964Y-107913379D01*
X110463846Y-108015000D01*
X110516154Y-108015000D01*
X111027036Y-107913379D01*
X111460142Y-107623988D01*
X111749533Y-107190882D01*
X111851154Y-106680000D01*
X111749533Y-106169118D01*
X111460142Y-105736012D01*
X111027036Y-105446621D01*
X110516154Y-105345000D01*
X110463846Y-105345000D01*
X109952964Y-105446621D01*
X109519858Y-105736012D01*
X109230467Y-106169118D01*
X109128846Y-106680000D01*
X106745000Y-106680000D01*
X106745231Y-106415617D01*
X106542418Y-105924771D01*
X106167204Y-105548902D01*
X105676713Y-105345232D01*
X105145617Y-105344769D01*
X104654771Y-105547582D01*
X104278902Y-105922796D01*
X104075232Y-106413287D01*
X104074769Y-106944383D01*
X90822434Y-106944383D01*
X90794533Y-106804118D01*
X90505142Y-106371012D01*
X90072036Y-106081621D01*
X89561154Y-105980000D01*
X89508846Y-105980000D01*
X88997964Y-106081621D01*
X88564858Y-106371012D01*
X88275467Y-106804118D01*
X88173846Y-107315000D01*
X88275467Y-107825882D01*
X88564858Y-108258988D01*
X88997964Y-108548379D01*
X89180508Y-108584689D01*
X88403204Y-108584011D01*
X86301942Y-109452234D01*
X84692884Y-111058486D01*
X83820995Y-113158229D01*
X83819011Y-115431796D01*
X84687234Y-117533058D01*
X86293486Y-119142116D01*
X88215005Y-119940000D01*
X85225149Y-119940000D01*
X82905829Y-119023830D01*
X81118027Y-117294058D01*
X80128267Y-115011797D01*
X80085000Y-112389168D01*
X80085000Y-107579383D01*
X83119769Y-107579383D01*
X83322582Y-108070229D01*
X83697796Y-108446098D01*
X84188287Y-108649768D01*
X84719383Y-108650231D01*
X85210229Y-108447418D01*
X85586098Y-108072204D01*
X85789768Y-107581713D01*
X85790231Y-107050617D01*
X85587418Y-106559771D01*
X85212204Y-106183902D01*
X84721713Y-105980232D01*
X84190617Y-105979769D01*
X83699771Y-106182582D01*
X83323902Y-106557796D01*
X83120232Y-107048287D01*
X83119769Y-107579383D01*
X80085000Y-107579383D01*
X80085000Y-101870000D01*
X83442560Y-101870000D01*
X83442560Y-103870000D01*
X83486838Y-104105317D01*
X83625910Y-104321441D01*
X83838110Y-104466431D01*
X84090000Y-104517440D01*
X86090000Y-104517440D01*
X86325317Y-104473162D01*
X86541441Y-104334090D01*
X86686431Y-104121890D01*
X86737440Y-103870000D01*
X86737440Y-102870000D01*
X98422968Y-102870000D01*
X98547425Y-103495687D01*
X98901848Y-104026120D01*
X99432281Y-104380543D01*
X100057968Y-104505000D01*
X100122032Y-104505000D01*
X100747719Y-104380543D01*
X101278152Y-104026120D01*
X101626352Y-103505000D01*
X104048846Y-103505000D01*
X104150467Y-104015882D01*
X104439858Y-104448988D01*
X104872964Y-104738379D01*
X105383846Y-104840000D01*
X105436154Y-104840000D01*
X105947036Y-104738379D01*
X106380142Y-104448988D01*
X106669533Y-104015882D01*
X106718564Y-103769383D01*
X109154769Y-103769383D01*
X109357582Y-104260229D01*
X109732796Y-104636098D01*
X110223287Y-104839768D01*
X110754383Y-104840231D01*
X110970810Y-104750805D01*
X118145000Y-104750805D01*
X118145000Y-104799195D01*
X118239009Y-105271809D01*
X118506723Y-105672472D01*
X118907386Y-105940186D01*
X119380000Y-106034195D01*
X119852614Y-105940186D01*
X120253277Y-105672472D01*
X120520991Y-105271809D01*
X120615000Y-104799195D01*
X120615000Y-104750805D01*
X120520991Y-104278191D01*
X120253277Y-103877528D01*
X119852614Y-103609814D01*
X119380000Y-103515805D01*
X118907386Y-103609814D01*
X118506723Y-103877528D01*
X118239009Y-104278191D01*
X118145000Y-104750805D01*
X110970810Y-104750805D01*
X111245229Y-104637418D01*
X111621098Y-104262204D01*
X111824768Y-103771713D01*
X111825231Y-103240617D01*
X111622418Y-102749771D01*
X111247204Y-102373902D01*
X110854424Y-102210805D01*
X115605000Y-102210805D01*
X115605000Y-102259195D01*
X115699009Y-102731809D01*
X115966723Y-103132472D01*
X116367386Y-103400186D01*
X116840000Y-103494195D01*
X117312614Y-103400186D01*
X117710416Y-103134383D01*
X124394769Y-103134383D01*
X124597582Y-103625229D01*
X124972796Y-104001098D01*
X125463287Y-104204768D01*
X125994383Y-104205231D01*
X126485229Y-104002418D01*
X126861098Y-103627204D01*
X127064768Y-103136713D01*
X127065231Y-102605617D01*
X126862418Y-102114771D01*
X126487204Y-101738902D01*
X125996713Y-101535232D01*
X125465617Y-101534769D01*
X124974771Y-101737582D01*
X124598902Y-102112796D01*
X124395232Y-102603287D01*
X124394769Y-103134383D01*
X117710416Y-103134383D01*
X117713277Y-103132472D01*
X117980991Y-102731809D01*
X118075000Y-102259195D01*
X118075000Y-102210805D01*
X117980991Y-101738191D01*
X117713277Y-101337528D01*
X117312614Y-101069814D01*
X116840000Y-100975805D01*
X116367386Y-101069814D01*
X115966723Y-101337528D01*
X115699009Y-101738191D01*
X115605000Y-102210805D01*
X110854424Y-102210805D01*
X110756713Y-102170232D01*
X110225617Y-102169769D01*
X109734771Y-102372582D01*
X109358902Y-102747796D01*
X109155232Y-103238287D01*
X109154769Y-103769383D01*
X106718564Y-103769383D01*
X106771154Y-103505000D01*
X106669533Y-102994118D01*
X106380142Y-102561012D01*
X105947036Y-102271621D01*
X105436154Y-102170000D01*
X105383846Y-102170000D01*
X104872964Y-102271621D01*
X104439858Y-102561012D01*
X104150467Y-102994118D01*
X104048846Y-103505000D01*
X101626352Y-103505000D01*
X101632575Y-103495687D01*
X101757032Y-102870000D01*
X101632575Y-102244313D01*
X101278152Y-101713880D01*
X100747719Y-101359457D01*
X100122032Y-101235000D01*
X100057968Y-101235000D01*
X99432281Y-101359457D01*
X98901848Y-101713880D01*
X98547425Y-102244313D01*
X98422968Y-102870000D01*
X86737440Y-102870000D01*
X86737440Y-101870000D01*
X86693162Y-101634683D01*
X86554090Y-101418559D01*
X86341890Y-101273569D01*
X86090000Y-101222560D01*
X84090000Y-101222560D01*
X83854683Y-101266838D01*
X83638559Y-101405910D01*
X83493569Y-101618110D01*
X83442560Y-101870000D01*
X80085000Y-101870000D01*
X80085000Y-99320626D01*
X80409357Y-99645551D01*
X80973330Y-99879733D01*
X81583991Y-99880265D01*
X82148371Y-99647068D01*
X82580551Y-99215643D01*
X82770444Y-98758329D01*
X83797284Y-98758329D01*
X83940203Y-99103396D01*
X84287337Y-99491764D01*
X84756669Y-99717727D01*
X84963000Y-99595206D01*
X84963000Y-98552000D01*
X85217000Y-98552000D01*
X85217000Y-99595206D01*
X85423331Y-99717727D01*
X85892663Y-99491764D01*
X86239797Y-99103396D01*
X86382716Y-98758329D01*
X86341501Y-98689383D01*
X88834769Y-98689383D01*
X89037582Y-99180229D01*
X89412796Y-99556098D01*
X89903287Y-99759768D01*
X90434383Y-99760231D01*
X90925229Y-99557418D01*
X91015918Y-99466887D01*
X118145000Y-99466887D01*
X118145000Y-99923113D01*
X118239009Y-100395727D01*
X118506723Y-100796390D01*
X118907386Y-101064104D01*
X119380000Y-101158113D01*
X119852614Y-101064104D01*
X120253277Y-100796390D01*
X120520991Y-100395727D01*
X120615000Y-99923113D01*
X120615000Y-99466887D01*
X120520991Y-98994273D01*
X120253277Y-98593610D01*
X119852614Y-98325896D01*
X119380000Y-98231887D01*
X118907386Y-98325896D01*
X118506723Y-98593610D01*
X118239009Y-98994273D01*
X118145000Y-99466887D01*
X91015918Y-99466887D01*
X91301098Y-99182204D01*
X91504768Y-98691713D01*
X91505231Y-98160617D01*
X91302418Y-97669771D01*
X90927204Y-97293902D01*
X90436713Y-97090232D01*
X89905617Y-97089769D01*
X89414771Y-97292582D01*
X89038902Y-97667796D01*
X88835232Y-98158287D01*
X88834769Y-98689383D01*
X86341501Y-98689383D01*
X86259374Y-98552000D01*
X85217000Y-98552000D01*
X84963000Y-98552000D01*
X83920626Y-98552000D01*
X83797284Y-98758329D01*
X82770444Y-98758329D01*
X82814733Y-98651670D01*
X82815220Y-98091671D01*
X83797284Y-98091671D01*
X83920626Y-98298000D01*
X84963000Y-98298000D01*
X84963000Y-97254794D01*
X85217000Y-97254794D01*
X85217000Y-98298000D01*
X86259374Y-98298000D01*
X86382716Y-98091671D01*
X86239797Y-97746604D01*
X85892663Y-97358236D01*
X85423331Y-97132273D01*
X85217000Y-97254794D01*
X84963000Y-97254794D01*
X84756669Y-97132273D01*
X84287337Y-97358236D01*
X83940203Y-97746604D01*
X83797284Y-98091671D01*
X82815220Y-98091671D01*
X82815265Y-98041009D01*
X82582068Y-97476629D01*
X82200818Y-97094712D01*
X82580551Y-96715643D01*
X82814733Y-96151670D01*
X82815265Y-95541009D01*
X82804264Y-95514383D01*
X83754769Y-95514383D01*
X83957582Y-96005229D01*
X84332796Y-96381098D01*
X84823287Y-96584768D01*
X85354383Y-96585231D01*
X85845229Y-96382418D01*
X86221098Y-96007204D01*
X86424768Y-95516713D01*
X86425000Y-95250000D01*
X88808846Y-95250000D01*
X88910467Y-95760882D01*
X89199858Y-96193988D01*
X89632964Y-96483379D01*
X90143846Y-96585000D01*
X90196154Y-96585000D01*
X90707036Y-96483379D01*
X91140142Y-96193988D01*
X91166192Y-96155000D01*
X95507560Y-96155000D01*
X95507560Y-98155000D01*
X95551838Y-98390317D01*
X95690910Y-98606441D01*
X95903110Y-98751431D01*
X96155000Y-98802440D01*
X98155000Y-98802440D01*
X98390317Y-98758162D01*
X98606441Y-98619090D01*
X98751431Y-98406890D01*
X98802440Y-98155000D01*
X98802440Y-97155000D01*
X110487968Y-97155000D01*
X110612425Y-97780687D01*
X110966848Y-98311120D01*
X111497281Y-98665543D01*
X112122968Y-98790000D01*
X112187032Y-98790000D01*
X112812719Y-98665543D01*
X113343152Y-98311120D01*
X113697575Y-97780687D01*
X113700924Y-97763846D01*
X124395000Y-97763846D01*
X124395000Y-97816154D01*
X124496621Y-98327036D01*
X124786012Y-98760142D01*
X125219118Y-99049533D01*
X125730000Y-99151154D01*
X126240882Y-99049533D01*
X126673988Y-98760142D01*
X126963379Y-98327036D01*
X127065000Y-97816154D01*
X127065000Y-97763846D01*
X126963379Y-97252964D01*
X126673988Y-96819858D01*
X126240882Y-96530467D01*
X125730000Y-96428846D01*
X125219118Y-96530467D01*
X124786012Y-96819858D01*
X124496621Y-97252964D01*
X124395000Y-97763846D01*
X113700924Y-97763846D01*
X113822032Y-97155000D01*
X113697575Y-96529313D01*
X113343152Y-95998880D01*
X112812719Y-95644457D01*
X112187032Y-95520000D01*
X112122968Y-95520000D01*
X111497281Y-95644457D01*
X110966848Y-95998880D01*
X110612425Y-96529313D01*
X110487968Y-97155000D01*
X98802440Y-97155000D01*
X98802440Y-96155000D01*
X98758162Y-95919683D01*
X98619090Y-95703559D01*
X98406890Y-95558569D01*
X98155000Y-95507560D01*
X96155000Y-95507560D01*
X95919683Y-95551838D01*
X95703559Y-95690910D01*
X95558569Y-95903110D01*
X95507560Y-96155000D01*
X91166192Y-96155000D01*
X91429533Y-95760882D01*
X91531154Y-95250000D01*
X91429533Y-94739118D01*
X91140142Y-94306012D01*
X90707036Y-94016621D01*
X90196154Y-93915000D01*
X90143846Y-93915000D01*
X89632964Y-94016621D01*
X89199858Y-94306012D01*
X88910467Y-94739118D01*
X88808846Y-95250000D01*
X86425000Y-95250000D01*
X86425231Y-94985617D01*
X86222418Y-94494771D01*
X85847204Y-94118902D01*
X85356713Y-93915232D01*
X84825617Y-93914769D01*
X84334771Y-94117582D01*
X83958902Y-94492796D01*
X83755232Y-94983287D01*
X83754769Y-95514383D01*
X82804264Y-95514383D01*
X82582068Y-94976629D01*
X82200818Y-94594712D01*
X82580551Y-94215643D01*
X82814733Y-93651670D01*
X82815265Y-93041009D01*
X82582068Y-92476629D01*
X82445062Y-92339383D01*
X83754769Y-92339383D01*
X83957582Y-92830229D01*
X84332796Y-93206098D01*
X84823287Y-93409768D01*
X85354383Y-93410231D01*
X85845229Y-93207418D01*
X86221098Y-92832204D01*
X86424768Y-92341713D01*
X86425000Y-92075000D01*
X88808846Y-92075000D01*
X88910467Y-92585882D01*
X89199858Y-93018988D01*
X89632964Y-93308379D01*
X90143846Y-93410000D01*
X90196154Y-93410000D01*
X90707036Y-93308379D01*
X91140142Y-93018988D01*
X91429533Y-92585882D01*
X91478564Y-92339383D01*
X94549769Y-92339383D01*
X94752582Y-92830229D01*
X95127796Y-93206098D01*
X95618287Y-93409768D01*
X96149383Y-93410231D01*
X96640229Y-93207418D01*
X97016098Y-92832204D01*
X97219768Y-92341713D01*
X97220000Y-92075000D01*
X99603846Y-92075000D01*
X99705467Y-92585882D01*
X99994858Y-93018988D01*
X100427964Y-93308379D01*
X100938846Y-93410000D01*
X100991154Y-93410000D01*
X101502036Y-93308379D01*
X101935142Y-93018988D01*
X101964945Y-92974383D01*
X116139769Y-92974383D01*
X116342582Y-93465229D01*
X116717796Y-93841098D01*
X117208287Y-94044768D01*
X117739383Y-94045231D01*
X118230229Y-93842418D01*
X118606098Y-93467204D01*
X118809768Y-92976713D01*
X118810231Y-92445617D01*
X118607418Y-91954771D01*
X118232204Y-91578902D01*
X117741713Y-91375232D01*
X117210617Y-91374769D01*
X116719771Y-91577582D01*
X116343902Y-91952796D01*
X116140232Y-92443287D01*
X116139769Y-92974383D01*
X101964945Y-92974383D01*
X102224533Y-92585882D01*
X102326154Y-92075000D01*
X102224533Y-91564118D01*
X101935142Y-91131012D01*
X101502036Y-90841621D01*
X100991154Y-90740000D01*
X100938846Y-90740000D01*
X100427964Y-90841621D01*
X99994858Y-91131012D01*
X99705467Y-91564118D01*
X99603846Y-92075000D01*
X97220000Y-92075000D01*
X97220231Y-91810617D01*
X97017418Y-91319771D01*
X96642204Y-90943902D01*
X96151713Y-90740232D01*
X95620617Y-90739769D01*
X95129771Y-90942582D01*
X94753902Y-91317796D01*
X94550232Y-91808287D01*
X94549769Y-92339383D01*
X91478564Y-92339383D01*
X91531154Y-92075000D01*
X91429533Y-91564118D01*
X91140142Y-91131012D01*
X90707036Y-90841621D01*
X90196154Y-90740000D01*
X90143846Y-90740000D01*
X89632964Y-90841621D01*
X89199858Y-91131012D01*
X88910467Y-91564118D01*
X88808846Y-92075000D01*
X86425000Y-92075000D01*
X86425231Y-91810617D01*
X86222418Y-91319771D01*
X85847204Y-90943902D01*
X85356713Y-90740232D01*
X84825617Y-90739769D01*
X84334771Y-90942582D01*
X83958902Y-91317796D01*
X83755232Y-91808287D01*
X83754769Y-92339383D01*
X82445062Y-92339383D01*
X82150643Y-92044449D01*
X81586670Y-91810267D01*
X80976009Y-91809735D01*
X80411629Y-92042932D01*
X80085000Y-92368990D01*
X80085000Y-89237952D01*
X80280000Y-89277440D01*
X82280000Y-89277440D01*
X82515317Y-89233162D01*
X82731441Y-89094090D01*
X82876431Y-88881890D01*
X82927440Y-88630000D01*
X82927440Y-88010434D01*
X94689876Y-88010434D01*
X94886598Y-88485385D01*
X95320006Y-88953505D01*
X95899565Y-89220133D01*
X96153000Y-89101319D01*
X96153000Y-87757000D01*
X96407000Y-87757000D01*
X96407000Y-89101319D01*
X96660435Y-89220133D01*
X97239994Y-88953505D01*
X97673402Y-88485385D01*
X97870124Y-88010434D01*
X97750777Y-87757000D01*
X96407000Y-87757000D01*
X96153000Y-87757000D01*
X94809223Y-87757000D01*
X94689876Y-88010434D01*
X82927440Y-88010434D01*
X82927440Y-87249566D01*
X94689876Y-87249566D01*
X94809223Y-87503000D01*
X96153000Y-87503000D01*
X96153000Y-86158681D01*
X96407000Y-86158681D01*
X96407000Y-87503000D01*
X97750777Y-87503000D01*
X97870124Y-87249566D01*
X97673402Y-86774615D01*
X97239994Y-86306495D01*
X96660435Y-86039867D01*
X96407000Y-86158681D01*
X96153000Y-86158681D01*
X95899565Y-86039867D01*
X95320006Y-86306495D01*
X94886598Y-86774615D01*
X94689876Y-87249566D01*
X82927440Y-87249566D01*
X82927440Y-86630000D01*
X82883162Y-86394683D01*
X82744090Y-86178559D01*
X82531890Y-86033569D01*
X82280000Y-85982560D01*
X80280000Y-85982560D01*
X80085000Y-86019252D01*
X80085000Y-85860000D01*
X100452560Y-85860000D01*
X100452560Y-86860000D01*
X100496838Y-87095317D01*
X100635910Y-87311441D01*
X100848110Y-87456431D01*
X101100000Y-87507440D01*
X101735106Y-87507440D01*
X101734881Y-87765117D01*
X101375225Y-87764803D01*
X100957914Y-87937233D01*
X100638355Y-88256235D01*
X100465197Y-88673244D01*
X100464803Y-89124775D01*
X100637233Y-89542086D01*
X100956235Y-89861645D01*
X101373244Y-90034803D01*
X101824775Y-90035197D01*
X102242086Y-89862767D01*
X102561645Y-89543765D01*
X102565284Y-89535000D01*
X106690805Y-89535000D01*
X106784814Y-90007614D01*
X107052528Y-90408277D01*
X107453191Y-90675991D01*
X107925805Y-90770000D01*
X107974195Y-90770000D01*
X108446809Y-90675991D01*
X108847472Y-90408277D01*
X109115186Y-90007614D01*
X109209195Y-89535000D01*
X111566887Y-89535000D01*
X111660896Y-90007614D01*
X111928610Y-90408277D01*
X112329273Y-90675991D01*
X112801887Y-90770000D01*
X113258113Y-90770000D01*
X113730727Y-90675991D01*
X114131390Y-90408277D01*
X114200397Y-90305000D01*
X122677560Y-90305000D01*
X122677560Y-91305000D01*
X122721838Y-91540317D01*
X122860910Y-91756441D01*
X123073110Y-91901431D01*
X123325000Y-91952440D01*
X123960106Y-91952440D01*
X123959881Y-92210117D01*
X123600225Y-92209803D01*
X123182914Y-92382233D01*
X122863355Y-92701235D01*
X122690197Y-93118244D01*
X122689803Y-93569775D01*
X122862233Y-93987086D01*
X123181235Y-94306645D01*
X123598244Y-94479803D01*
X124049775Y-94480197D01*
X124467086Y-94307767D01*
X124786645Y-93988765D01*
X124959803Y-93571756D01*
X124960119Y-93209883D01*
X125319775Y-93210197D01*
X125737086Y-93037767D01*
X126056645Y-92718765D01*
X126229803Y-92301756D01*
X126230197Y-91850225D01*
X126057767Y-91432914D01*
X125738765Y-91113355D01*
X125321756Y-90940197D01*
X124972440Y-90939892D01*
X124972440Y-90305000D01*
X124928162Y-90069683D01*
X124789090Y-89853559D01*
X124576890Y-89708569D01*
X124325000Y-89657560D01*
X123325000Y-89657560D01*
X123089683Y-89701838D01*
X122873559Y-89840910D01*
X122728569Y-90053110D01*
X122677560Y-90305000D01*
X114200397Y-90305000D01*
X114399104Y-90007614D01*
X114493113Y-89535000D01*
X114399104Y-89062386D01*
X114131390Y-88661723D01*
X113730727Y-88394009D01*
X113258113Y-88300000D01*
X112801887Y-88300000D01*
X112329273Y-88394009D01*
X111928610Y-88661723D01*
X111660896Y-89062386D01*
X111566887Y-89535000D01*
X109209195Y-89535000D01*
X109115186Y-89062386D01*
X108847472Y-88661723D01*
X108446809Y-88394009D01*
X107974195Y-88300000D01*
X107925805Y-88300000D01*
X107453191Y-88394009D01*
X107052528Y-88661723D01*
X106784814Y-89062386D01*
X106690805Y-89535000D01*
X102565284Y-89535000D01*
X102734803Y-89126756D01*
X102735119Y-88764883D01*
X103094775Y-88765197D01*
X103512086Y-88592767D01*
X103831645Y-88273765D01*
X104004803Y-87856756D01*
X104005197Y-87405225D01*
X103966929Y-87312609D01*
X109296538Y-87312609D01*
X109421503Y-87614327D01*
X109739844Y-87976080D01*
X110172389Y-88188472D01*
X110363000Y-88064714D01*
X110363000Y-87122000D01*
X110617000Y-87122000D01*
X110617000Y-88064714D01*
X110807611Y-88188472D01*
X111240156Y-87976080D01*
X111558497Y-87614327D01*
X111562838Y-87603846D01*
X116140000Y-87603846D01*
X116140000Y-87656154D01*
X116241621Y-88167036D01*
X116531012Y-88600142D01*
X116964118Y-88889533D01*
X117475000Y-88991154D01*
X117985882Y-88889533D01*
X118418988Y-88600142D01*
X118708379Y-88167036D01*
X118810000Y-87656154D01*
X118810000Y-87603846D01*
X118708379Y-87092964D01*
X118642922Y-86995000D01*
X119288846Y-86995000D01*
X119390467Y-87505882D01*
X119679858Y-87938988D01*
X120112964Y-88228379D01*
X120623846Y-88330000D01*
X120676154Y-88330000D01*
X121187036Y-88228379D01*
X121620142Y-87938988D01*
X121909533Y-87505882D01*
X121958564Y-87259383D01*
X124394769Y-87259383D01*
X124597582Y-87750229D01*
X124972796Y-88126098D01*
X125463287Y-88329768D01*
X125994383Y-88330231D01*
X126485229Y-88127418D01*
X126861098Y-87752204D01*
X127064768Y-87261713D01*
X127065231Y-86730617D01*
X126862418Y-86239771D01*
X126487204Y-85863902D01*
X125996713Y-85660232D01*
X125465617Y-85659769D01*
X124974771Y-85862582D01*
X124598902Y-86237796D01*
X124395232Y-86728287D01*
X124394769Y-87259383D01*
X121958564Y-87259383D01*
X122011154Y-86995000D01*
X121909533Y-86484118D01*
X121620142Y-86051012D01*
X121187036Y-85761621D01*
X120676154Y-85660000D01*
X120623846Y-85660000D01*
X120112964Y-85761621D01*
X119679858Y-86051012D01*
X119390467Y-86484118D01*
X119288846Y-86995000D01*
X118642922Y-86995000D01*
X118418988Y-86659858D01*
X117985882Y-86370467D01*
X117475000Y-86268846D01*
X116964118Y-86370467D01*
X116531012Y-86659858D01*
X116241621Y-87092964D01*
X116140000Y-87603846D01*
X111562838Y-87603846D01*
X111683462Y-87312609D01*
X111558731Y-87122000D01*
X110617000Y-87122000D01*
X110363000Y-87122000D01*
X109421269Y-87122000D01*
X109296538Y-87312609D01*
X103966929Y-87312609D01*
X103832767Y-86987914D01*
X103522786Y-86677391D01*
X109296538Y-86677391D01*
X109421269Y-86868000D01*
X110363000Y-86868000D01*
X110363000Y-85925286D01*
X110617000Y-85925286D01*
X110617000Y-86868000D01*
X111558731Y-86868000D01*
X111683462Y-86677391D01*
X111558497Y-86375673D01*
X111240156Y-86013920D01*
X110807611Y-85801528D01*
X110617000Y-85925286D01*
X110363000Y-85925286D01*
X110172389Y-85801528D01*
X109739844Y-86013920D01*
X109421503Y-86375673D01*
X109296538Y-86677391D01*
X103522786Y-86677391D01*
X103513765Y-86668355D01*
X103096756Y-86495197D01*
X102747440Y-86494892D01*
X102747440Y-85860000D01*
X102703162Y-85624683D01*
X102564090Y-85408559D01*
X102351890Y-85263569D01*
X102100000Y-85212560D01*
X101100000Y-85212560D01*
X100864683Y-85256838D01*
X100648559Y-85395910D01*
X100503569Y-85608110D01*
X100452560Y-85860000D01*
X80085000Y-85860000D01*
X80085000Y-82490159D01*
X124709446Y-82490159D01*
X124795852Y-82746643D01*
X125369336Y-82956458D01*
X125979460Y-82930839D01*
X126424148Y-82746643D01*
X126510554Y-82490159D01*
X125610000Y-81589605D01*
X124709446Y-82490159D01*
X80085000Y-82490159D01*
X80085000Y-82042111D01*
X80504565Y-82235133D01*
X80758000Y-82116319D01*
X80758000Y-80772000D01*
X81012000Y-80772000D01*
X81012000Y-82116319D01*
X81265435Y-82235133D01*
X81844994Y-81968505D01*
X82278402Y-81500385D01*
X82475124Y-81025434D01*
X82355777Y-80772000D01*
X81012000Y-80772000D01*
X80758000Y-80772000D01*
X80738000Y-80772000D01*
X80738000Y-80518000D01*
X80758000Y-80518000D01*
X80758000Y-79173681D01*
X81012000Y-79173681D01*
X81012000Y-80518000D01*
X82355777Y-80518000D01*
X82475124Y-80264566D01*
X82278402Y-79789615D01*
X82144511Y-79645000D01*
X94237560Y-79645000D01*
X94237560Y-81645000D01*
X94281838Y-81880317D01*
X94420910Y-82096441D01*
X94633110Y-82241431D01*
X94885000Y-82292440D01*
X96885000Y-82292440D01*
X97120317Y-82248162D01*
X97336441Y-82109090D01*
X97474258Y-81907388D01*
X97595910Y-82096441D01*
X97808110Y-82241431D01*
X98060000Y-82292440D01*
X100060000Y-82292440D01*
X100295317Y-82248162D01*
X100511441Y-82109090D01*
X100656431Y-81896890D01*
X100707440Y-81645000D01*
X100707440Y-80645000D01*
X112392968Y-80645000D01*
X112517425Y-81270687D01*
X112871848Y-81801120D01*
X113402281Y-82155543D01*
X114027968Y-82280000D01*
X114092032Y-82280000D01*
X114717719Y-82155543D01*
X115248152Y-81801120D01*
X115602575Y-81270687D01*
X115727032Y-80645000D01*
X115661191Y-80313991D01*
X116574735Y-80313991D01*
X116807932Y-80878371D01*
X117239357Y-81310551D01*
X117803330Y-81544733D01*
X118413991Y-81545265D01*
X118978371Y-81312068D01*
X119121352Y-81169336D01*
X124063542Y-81169336D01*
X124089161Y-81779460D01*
X124273357Y-82224148D01*
X124529841Y-82310554D01*
X125430395Y-81410000D01*
X125789605Y-81410000D01*
X126690159Y-82310554D01*
X126946643Y-82224148D01*
X127156458Y-81650664D01*
X127130839Y-81040540D01*
X126946643Y-80595852D01*
X126690159Y-80509446D01*
X125789605Y-81410000D01*
X125430395Y-81410000D01*
X124529841Y-80509446D01*
X124273357Y-80595852D01*
X124063542Y-81169336D01*
X119121352Y-81169336D01*
X119410551Y-80880643D01*
X119639263Y-80329841D01*
X124709446Y-80329841D01*
X125610000Y-81230395D01*
X126510554Y-80329841D01*
X126424148Y-80073357D01*
X125850664Y-79863542D01*
X125240540Y-79889161D01*
X124795852Y-80073357D01*
X124709446Y-80329841D01*
X119639263Y-80329841D01*
X119644733Y-80316670D01*
X119645265Y-79706009D01*
X119412068Y-79141629D01*
X118980643Y-78709449D01*
X118416670Y-78475267D01*
X117806009Y-78474735D01*
X117241629Y-78707932D01*
X116809449Y-79139357D01*
X116575267Y-79703330D01*
X116574735Y-80313991D01*
X115661191Y-80313991D01*
X115602575Y-80019313D01*
X115248152Y-79488880D01*
X114717719Y-79134457D01*
X114092032Y-79010000D01*
X114027968Y-79010000D01*
X113402281Y-79134457D01*
X112871848Y-79488880D01*
X112517425Y-80019313D01*
X112392968Y-80645000D01*
X100707440Y-80645000D01*
X100707440Y-79645000D01*
X100663162Y-79409683D01*
X100524090Y-79193559D01*
X100311890Y-79048569D01*
X100060000Y-78997560D01*
X98060000Y-78997560D01*
X97824683Y-79041838D01*
X97608559Y-79180910D01*
X97470742Y-79382612D01*
X97349090Y-79193559D01*
X97136890Y-79048569D01*
X96885000Y-78997560D01*
X94885000Y-78997560D01*
X94649683Y-79041838D01*
X94433559Y-79180910D01*
X94288569Y-79393110D01*
X94237560Y-79645000D01*
X82144511Y-79645000D01*
X81844994Y-79321495D01*
X81265435Y-79054867D01*
X81012000Y-79173681D01*
X80758000Y-79173681D01*
X80504565Y-79054867D01*
X80085000Y-79247889D01*
X80085000Y-78180000D01*
X127560000Y-78180000D01*
X127560000Y-113539833D01*
M02*
